<svg xmlns="http://www.w3.org/2000/svg" version="1.1" xmlns:xlink="http://www.w3.org/1999/xlink" xmlns:svgjs="http://svgjs.com/svgjs" width="1440" height="560" preserveAspectRatio="none" viewBox="0 0 1440 560">
    <g mask="url(&quot;#SvgjsMask1008&quot;)" fill="none">
        <rect width="1440" height="560" x="0" y="0" fill="url(#SvgjsLinearGradient1009)"></rect>
        <path d="M0 0L521.82 0L0 87.22z" fill="rgba(255, 255, 255, .1)"></path>
        <path d="M0 87.22L521.82 0L1029.0500000000002 0L0 346.80999999999995z" fill="rgba(255, 255, 255, .075)"></path>
        <path d="M0 346.80999999999995L1029.0500000000002 0L1119.0400000000002 0L0 469.12999999999994z" fill="rgba(255, 255, 255, .05)"></path>
        <path d="M0 469.12999999999994L1119.0400000000002 0L1280.1100000000001 0L0 479.78999999999996z" fill="rgba(255, 255, 255, .025)"></path>
        <path d="M1440 560L1245.46 560L1440 334.57z" fill="rgba(0, 0, 0, .1)"></path>
        <path d="M1440 334.57L1245.46 560L1093.1200000000001 560L1440 270.55z" fill="rgba(0, 0, 0, .075)"></path>
        <path d="M1440 270.55L1093.12 560L907.3499999999999 560L1440 267.03000000000003z" fill="rgba(0, 0, 0, .05)"></path>
        <path d="M1440 267.03000000000003L907.35 560L298.58000000000004 560L1440 192.73000000000002z" fill="rgba(0, 0, 0, .025)"></path>
    </g>
    <defs>
        <mask id="SvgjsMask1008">
            <rect width="1440" height="560" fill="#ffffff"></rect>
        </mask>
        <linearGradient x1="15.28%" y1="-39.29%" x2="84.72%" y2="139.29%" gradientUnits="userSpaceOnUse" id="SvgjsLinearGradient1009">
            <stop stop-color="rgba(0, 0, 0, 1)" offset="0"></stop>
            <stop stop-color="rgba(33, 34, 45, 1)" offset="1"></stop>
        </linearGradient>
    </defs>
</svg>