<svg xmlns="http://www.w3.org/2000/svg" width="179.824" height="179.824" viewBox="0 0 179.824 179.824">
  <g id="CSS" transform="translate(-758 -449.5)">
    <path id="Rectangle_3" data-name="Rectangle 3" d="M0,0H179.824V179.824H0Z" transform="translate(758 449.5)" fill="#c4c4c4"/>
    <g id="css-2" data-name="css" transform="translate(778.172 469.672)">
      <path id="Path_290" data-name="Path 290" d="M140,70a69.884,69.884,0,1,1-20.468-49.531A70,70,0,0,1,140,70Z"/>
      <path id="Path_291" data-name="Path 291" d="M171.693,119.474,163.7,212.221a69.93,69.93,0,0,1-85.706,0l-7.99-92.747Z" transform="translate(-50.85 -86.89)" fill="#fff"/>
      <path id="Path_292" data-name="Path 292" d="M256,151.338V248.2l33.46-9.447,7.464-87.415Z" transform="translate(-186.021 -110.035)" fill="#fff"/>
      <path id="Path_293" data-name="Path 293" d="M201.317,221.48H177.184L202.4,208.646l1.086-12.9H140.008l1.111,13.153h25.488l-24.449,12.225L143.3,234.6h43.613l-1.43,16.048-13.729,3.718-14.3-4-.358-10.006H143.778l1.666,19.73,26.307,7.435,26.306-7.435,3.258-38.6Z" transform="translate(-101.752 -142.29)"/>
      <g id="Group_11" data-name="Group 11" transform="translate(40.43 7.57)">
        <path id="Path_294" data-name="Path 294" d="M152.7,29.781V20.628h13.153V15.672H147.939V34.737h17.917V29.781Z" transform="translate(-147.939 -15.672)" fill="#fff"/>
        <path id="Path_295" data-name="Path 295" d="M228.7,23.134V20.846h13.082v-5.17H223.866V27.495h12.843v2.287H223.866v4.956h17.917v-11.6Z" transform="translate(-203.09 -15.673)" fill="#fff"/>
        <path id="Path_296" data-name="Path 296" d="M303.413,23.134V20.846H316.5v-5.17H298.578V27.495h12.843v2.287H298.576v4.956h17.917v-11.6Z" transform="translate(-257.355 -15.673)" fill="#fff"/>
      </g>
    </g>
  </g>
</svg>
