<svg xmlns="http://www.w3.org/2000/svg" width="180" height="179" viewBox="0 0 180 179">
  <g id="express" transform="translate(-313 -309)">
    <rect id="Rectangle_3" data-name="Rectangle 3" width="180" height="179" transform="translate(313 309)" fill="#c4c4c4"/>
    <g id="expressjs-ar21" transform="translate(316.446 362.573)">
      <path d="M 55.72499847412109 54.35821914672852 L 55.72499847412109 53.60600280761719 L 55.72499847412109 44.16456604003906 L 53.64542007446289 44.95146179199219 C 53.22661972045898 45.10993957519531 52.78836059570312 45.19028091430664 52.34280014038086 45.19028091430664 C 50.98702239990234 45.19028091430664 49.75222015380859 44.45454788208008 49.10641479492188 43.26621246337891 L 42.52134704589844 34.15914154052734 L 42.17122650146484 33.69268035888672 L 35.12242889404297 43.28014373779297 C 34.49986267089844 44.43873596191406 33.30307769775391 45.15592193603516 31.98394012451172 45.15602111816406 C 31.57092094421387 45.15605926513672 31.16349983215332 45.08449935913086 30.77300071716309 44.94332122802734 L 29.82263946533203 44.5997428894043 L 30.42678070068359 43.78964233398438 L 39.98762893676758 30.96940994262695 L 31.12693977355957 19.41952133178711 L 30.50254058837891 18.60560035705566 L 31.46750068664551 18.25750160217285 C 31.88405990600586 18.10724067687988 32.31893920898438 18.03104019165039 32.7600212097168 18.03104019165039 C 34.06461334228516 18.03104019165039 35.29940795898438 18.71588516235352 35.99110794067383 19.82049942016602 L 42.23291778564453 28.25149154663086 L 48.49663162231445 19.87264060974121 C 49.11392974853516 18.75543594360352 50.28325653076172 18.06398010253906 51.56317901611328 18.06398010253906 C 51.99597930908203 18.06398010253906 52.42108154296875 18.14358139038086 52.82669830322266 18.30056190490723 L 53.75239944458008 18.65882110595703 L 53.15489959716797 19.45146179199219 L 49.58190155029297 24.19146156311035 L 49.57986068725586 24.19416046142578 L 49.57780075073242 24.19686126708984 L 44.73880004882812 30.49686050415039 L 44.69612121582031 30.55242156982422 L 44.64387893676758 30.59912109375 C 44.53176116943359 30.69936180114746 44.46746063232422 30.84310150146484 44.46746063232422 30.99350166320801 C 44.46746063232422 31.14390182495117 44.53176116943359 31.28764152526855 44.64387893676758 31.38788032531738 L 44.69945907592773 31.43758010864258 L 44.74417877197266 31.49724197387695 L 53.77864837646484 43.55365371704102 L 55.72499847412109 43.86097717285156 L 55.72499847412109 18.94000053405762 L 55.72499847412109 18.19000053405762 L 56.47499847412109 18.19000053405762 L 58.35499954223633 18.19000053405762 L 59.10499954223633 18.19000053405762 L 59.10499954223633 18.94000053405762 L 59.10499954223633 21.90908432006836 C 59.87422943115234 20.80534934997559 60.85945129394531 19.86382102966309 62.00973892211914 19.14146041870117 C 63.61618041992188 18.13264083862305 65.46765899658203 17.59942054748535 67.36405944824219 17.59942054748535 C 67.39682006835938 17.59942054748535 67.42940521240234 17.59957122802734 67.462158203125 17.59988403320312 C 67.62309265136719 17.5952262878418 67.78477478027344 17.59286117553711 67.94293975830078 17.59286117553711 C 70.1533203125 17.59286117553711 72.11074066162109 18.04854011535645 73.76084136962891 18.94724082946777 C 75.51155090332031 19.9007740020752 76.92011260986328 21.3540096282959 77.94745635986328 23.26675987243652 C 80.69936370849609 28.27388954162598 80.86101531982422 34.33452224731445 78.38021087646484 39.48112106323242 C 77.51921844482422 41.40534973144531 76.08845520019531 42.99701690673828 74.24198150634766 44.08457946777344 C 72.45459747314453 45.1373405456543 70.32393646240234 45.69384002685547 68.08033752441406 45.69396209716797 C 67.37673187255859 45.6939811706543 66.6593017578125 45.63884735107422 65.94745635986328 45.53005599975586 C 64.26735687255859 45.38277053833008 62.63610458374023 44.81433486938477 61.22832107543945 43.88536071777344 C 60.50156021118164 43.40576171875 59.83981323242188 42.83372497558594 59.2599983215332 42.18783569335938 L 59.2599983215332 53.60000228881836 L 59.2599983215332 54.34780120849609 L 58.5122184753418 54.35000228881836 L 56.47721862792969 54.35600280761719 L 55.72499847412109 54.35821914672852 Z M 59.51982116699219 35.17858505249023 C 60.20963668823242 39.4391975402832 62.67419815063477 41.94247817993164 66.64816284179688 42.41831970214844 L 66.66448211669922 42.42028045654297 L 66.68067932128906 42.42293930053711 C 67.11627960205078 42.49456024169922 67.55986022949219 42.53087997436523 67.99907684326172 42.53090286254883 C 71.35028076171875 42.53105926513672 74.39394378662109 40.42068099975586 75.57282257080078 37.27947998046875 L 75.57781982421875 37.26618194580078 L 75.58329772949219 37.25308227539062 C 77.17053985595703 33.46623992919922 77.05590057373047 29.17418098449707 75.26876068115234 25.47744178771973 L 75.26371765136719 25.46700096130371 L 75.25900268554688 25.4564208984375 C 73.98805999755859 22.60602188110352 71.15203857421875 20.76424026489258 68.03389739990234 20.76424026489258 C 67.66396331787109 20.76424026489258 67.28986358642578 20.79060173034668 66.9219970703125 20.84262084960938 L 66.89678192138672 20.84618186950684 L 66.87138366699219 20.84802055358887 C 63.61067199707031 21.08504104614258 60.851318359375 23.36500549316406 60.00311660766602 26.52190589904785 C 59.61871337890625 28.06140518188477 59.31825256347656 29.63894271850586 59.10968017578125 31.21259117126465 L 59.51982116699219 35.17858505249023 Z M 155.9792633056641 45.72738265991211 C 153.9300537109375 45.72746276855469 151.9364013671875 45.31684112548828 150.0536346435547 44.50696182250977 C 148.4052734375 43.79622268676758 147.0342254638672 42.61474227905273 146.0880737304688 41.09000015258789 C 145.1419677734375 39.56528091430664 144.6920776367188 37.81220245361328 144.7870635986328 36.02030181884766 L 144.82470703125 35.31000137329102 L 145.5359954833984 35.31000137329102 L 147.1999969482422 35.31000137329102 L 147.8103332519531 35.31000137329102 L 147.9343566894531 35.90760040283203 C 148.5098571777344 38.68083953857422 150.4134368896484 40.98884201049805 153.0264739990234 42.08150100708008 C 154.0807800292969 42.52236175537109 155.1945037841797 42.74589920043945 156.3367156982422 42.74589920043945 C 157.9943542480469 42.74589920043945 159.6060943603516 42.27020263671875 160.9977264404297 41.37022018432617 L 161.0274963378906 41.35095977783203 L 161.0589752197266 41.33457946777344 C 162.3780822753906 40.64866256713867 163.1846618652344 39.24582290649414 163.1138610839844 37.76071929931641 L 163.1121978759766 37.72595977783203 L 163.1137542724609 37.69118118286133 C 163.1780395507812 36.26674270629883 162.2782592773438 34.95669937133789 160.9256439208984 34.50546264648438 L 160.9136657714844 34.50146102905273 L 160.9018249511719 34.49706268310547 C 159.8076782226562 34.09057998657227 158.6382446289062 33.78124237060547 157.5073394775391 33.48210144042969 C 156.6143493652344 33.24589157104492 155.691162109375 33.00169372558594 154.7887115478516 32.70702743530273 C 152.6363372802734 32.10617446899414 150.5097198486328 31.34162139892578 148.4675140380859 30.43442153930664 L 148.4540405273438 30.42842102050781 L 148.4407958984375 30.42192077636719 C 146.703857421875 29.56700134277344 145.5965728759766 27.54722023010254 145.5510864257812 25.15078163146973 C 145.5031585693359 22.62765502929688 146.6704406738281 20.41184043884277 148.5982055664062 19.36472320556641 C 150.67431640625 18.16132164001465 153.0398101806641 17.52526092529297 155.4397277832031 17.52526092529297 C 157.7372589111328 17.52526092529297 160.0151672363281 18.11172103881836 162.0271606445312 19.22124099731445 L 162.0383758544922 19.22742080688477 L 162.0493621826172 19.23398017883301 C 164.5809936523438 20.74490165710449 165.9834747314453 23.61186027526855 165.6223602294922 26.53786087036133 L 165.0674285888672 26.4693775177002 L 164.8939971923828 27.20400047302246 L 163.1940002441406 27.20400047302246 L 162.5157623291016 27.20400047302246 L 162.4477844238281 26.5291805267334 C 162.4306182861328 26.35894012451172 162.3991546630859 26.18890190124512 162.3542785644531 26.02376174926758 L 162.3301239013672 25.93496131896973 L 162.3281555175781 25.84294128417969 C 162.2800598144531 23.58012008666992 160.6309051513672 21.63292121887207 158.4068603515625 21.21298027038574 L 158.3726959228516 21.20652198791504 L 158.3392639160156 21.19694137573242 C 157.4044342041016 20.92884063720703 156.4373626708984 20.79290008544922 155.4649200439453 20.79290008544922 C 154.1501007080078 20.79290008544922 152.8632354736328 21.03744125366211 151.6401062011719 21.51972198486328 L 151.6062774658203 21.53306198120117 L 151.5713043212891 21.54306030273438 C 150.0416259765625 21.98072052001953 148.9649200439453 23.3976001739502 148.9529876708984 24.98862075805664 L 148.9528961181641 24.99898147583008 L 148.9525451660156 25.00932121276855 C 148.8983154296875 26.55322074890137 149.9490203857422 27.93670082092285 151.4508361816406 28.29890060424805 L 151.4562530517578 28.30022048950195 L 151.4616546630859 28.30160140991211 L 159.2392272949219 30.30019760131836 C 160.1036224365234 30.50772285461426 160.9644775390625 30.76965141296387 161.7978820800781 31.07872009277344 C 163.1561279296875 31.56701469421387 164.3217468261719 32.4428596496582 165.1687164306641 33.61172103881836 C 166.0166778564453 34.78194046020508 166.4860992431641 36.16403961181641 166.5262145996094 37.608642578125 C 166.5663146972656 39.05324172973633 166.1743469238281 40.45926284790039 165.3926239013672 41.67473983764648 C 164.6128082275391 42.88723373413086 163.4994964599609 43.82553863525391 162.1727142333984 44.38870239257812 C 160.2141418457031 45.27687072753906 158.1303253173828 45.72732162475586 155.9792633056641 45.72738265991211 Z M 19.00118064880371 45.7213020324707 C 15.73002052307129 45.72154235839844 12.61711978912354 44.48738098144531 10.23596000671387 42.24613952636719 L 10.21170043945312 42.22330093383789 L 10.18953990936279 42.19837951660156 C 8.263460159301758 40.03242111206055 7.07826042175293 37.24816131591797 6.852280139923096 34.35848236083984 L 6.85200023651123 34.35496139526367 L 6.851760387420654 34.35145950317383 C 6.826260089874268 33.98049926757812 6.752840042114258 33.6137809753418 6.633600234985352 33.26145935058594 L 6.595620155334473 33.14929962158203 L 6.59406042098999 33.03087997436523 C 6.584060192108154 32.27180099487305 6.578999996185303 31.51956176757812 6.578999996185303 30.79500198364258 L 6.578999996185303 28.98434066772461 L 6.87614631652832 29.2814826965332 L 7.404900074005127 26.6692008972168 L 7.410440444946289 26.64184188842773 L 7.418000221252441 26.61496162414551 C 8.182380676269531 23.89688110351562 9.737420082092285 21.58680152893066 11.91501998901367 19.93448066711426 C 13.9828405380249 18.36544036865234 16.51484107971191 17.50134086608887 19.04458045959473 17.50134086608887 C 21.58562088012695 17.50134086608887 24.0091609954834 18.34986114501953 26.0532398223877 19.95516014099121 C 29.44425964355469 22.61780166625977 30.92222023010254 26.45540046691895 30.70442008972168 32.03226089477539 L 30.6762809753418 32.75300216674805 L 29.95499992370605 32.75300216674805 L 10.20922565460205 32.75300216674805 C 10.23077964782715 35.72195434570312 11.15205955505371 38.29212951660156 12.83724021911621 40.04719924926758 C 14.35204029083252 41.62483978271484 16.37936019897461 42.458740234375 18.70001983642578 42.458740234375 C 19.85012626647949 42.458740234375 21.05546379089355 42.25140762329102 22.28282928466797 41.84249877929688 C 24.52186965942383 41.03368377685547 26.19305229187012 39.17025375366211 26.75411987304688 36.85626220703125 L 26.75988006591797 36.83248138427734 L 26.76717948913574 36.80913925170898 C 26.90773963928223 36.3597412109375 27.33542060852051 34.99217987060547 28.84362030029297 34.99217987060547 C 29.1671199798584 34.99217987060547 29.53166007995605 35.05644226074219 29.95808029174805 35.18864059448242 L 30.56035995483398 35.37533950805664 L 30.47986030578613 36.00074005126953 C 30.26608085632324 37.66170120239258 29.66846084594727 39.28038024902344 28.75161933898926 40.68178176879883 C 27.83476066589355 42.08316040039062 26.5909595489502 43.27907943725586 25.15465927124023 44.14023971557617 L 25.14182090759277 44.14794158935547 L 25.1286792755127 44.1551399230957 C 23.25414085388184 45.17958068847656 21.13528060913086 45.72116088867188 19.00118064880371 45.7213020324707 Z M 10.28348636627197 29.49600028991699 L 27.2336311340332 29.49600028991699 C 26.83802795410156 24.48614692687988 23.55521392822266 20.90310859680176 19.20712089538574 20.86898040771484 C 19.15660095214844 20.86830139160156 19.10980033874512 20.86798095703125 19.06380081176758 20.86798095703125 C 14.23626708984375 20.86798095703125 10.78300094604492 24.3031177520752 10.28348636627197 29.49600028991699 Z M 107.0271224975586 45.64950180053711 C 105.1670379638672 45.64953994750977 103.4629364013672 45.33258056640625 101.9621429443359 44.70742034912109 C 100.5488967895508 44.11874008178711 99.30950164794922 43.25558090209961 98.2783203125 42.14186096191406 C 96.41595458984375 40.13045120239258 95.26292419433594 37.34252548217773 94.94354248046875 34.07886505126953 C 94.51902770996094 30.65472221374512 95.07334136962891 27.19579124450684 96.54683685302734 24.07572174072266 C 97.48838043212891 22.11088180541992 98.95876312255859 20.46476173400879 100.8008575439453 19.31146049499512 C 102.6276016235352 18.16778182983398 104.7297439575195 17.56326103210449 106.8799819946289 17.56326103210449 C 107.4054946899414 17.56326103210449 107.9366989135742 17.60000610351562 108.4590911865234 17.67246627807617 C 113.1708831787109 18.08208084106445 117.0812683105469 21.44304656982422 118.193000793457 26.04176139831543 L 118.1956176757812 26.05258178710938 L 118.1978988647461 26.06346130371094 C 118.6026000976562 27.98544120788574 118.903938293457 29.95134162902832 119.0935440063477 31.90660095214844 L 119.1732788085938 32.72900009155273 L 118.347038269043 32.72900009155273 L 98.35496520996094 32.72900009155273 C 98.27899932861328 37.38961791992188 100.760368347168 41.22981262207031 104.5523147583008 42.19647979736328 C 105.4439926147461 42.41555404663086 106.3238830566406 42.5266227722168 107.1677017211914 42.5266227722168 C 110.8908462524414 42.5266227722168 113.7100677490234 40.43593597412109 114.9045867919922 36.78985977172852 C 115.2427520751953 35.60744094848633 115.9149169921875 35.00783920288086 116.9025039672852 35.00783920288086 C 117.2252807617188 35.00783920288086 117.5765991210938 35.07048034667969 118.0081405639648 35.20495986938477 L 117.787109375 35.91876602172852 L 118.5169372558594 36.0040397644043 C 118.2105178833008 38.6263427734375 116.9633636474609 41.04576110839844 115.0051803588867 42.81660079956055 C 113.0503234863281 44.58441543579102 110.5232620239258 45.58244705200195 107.8883209228516 45.62767791748047 C 107.5988082885742 45.64215469360352 107.3091201782227 45.64950180053711 107.0271224975586 45.64950180053711 Z M 98.42485046386719 29.46700096130371 L 115.358757019043 29.46700096130371 C 114.9667282104492 24.4643440246582 111.7357330322266 20.8816089630127 107.4587020874023 20.8399600982666 C 107.3977813720703 20.8390007019043 107.3412628173828 20.83854103088379 107.2855224609375 20.83854103088379 C 102.4169235229492 20.83854103088379 98.93447875976562 24.27304267883301 98.42485046386719 29.46700096130371 Z M 132.2919006347656 45.62728118896484 C 128.7325134277344 45.62734222412109 125.4694976806641 44.51728057861328 123.5633010864258 42.65788269042969 L 123.559196472168 42.65388107299805 L 123.5551834106445 42.64984130859375 C 121.821159362793 40.90600204467773 120.8369827270508 38.49554061889648 120.8550033569336 36.03650283813477 L 120.8604431152344 35.29199981689453 L 121.5254440307617 35.29199981689453 L 122.3618011474609 35.12406158447266 L 122.3605575561523 35.29199981689453 L 123.4160003662109 35.29199981689453 L 124.1295394897461 35.29199981689453 L 124.1650619506836 36.00464248657227 C 124.2876434326172 38.46245956420898 125.7569808959961 40.6185417175293 127.9997177124023 41.6314811706543 C 129.3521728515625 42.23971939086914 130.7910003662109 42.54838180541992 132.2751617431641 42.54841995239258 C 133.9279022216797 42.54844284057617 135.5782470703125 42.14862060546875 137.0477142333984 41.39213943481445 L 137.065185546875 41.38315963745117 L 137.0830841064453 41.37509918212891 C 138.4588012695312 40.75569915771484 139.3106842041016 39.32844161987305 139.2029266357422 37.82358169555664 L 139.1995391845703 37.77640151977539 L 139.2021179199219 37.72917938232422 C 139.2796936035156 36.30546188354492 138.3922576904297 34.98710250854492 137.0440063476562 34.52320098876953 L 137.0353851318359 34.52022171020508 L 137.0268402099609 34.51705932617188 C 135.9039154052734 34.09988021850586 134.703857421875 33.78121948242188 133.5433197021484 33.47304153442383 C 132.6793975830078 33.2436408996582 131.7862701416016 33.00647735595703 130.913818359375 32.72697067260742 C 128.7707214355469 32.11684799194336 126.6541061401367 31.34328460693359 124.6228408813477 30.42776107788086 L 124.6124038696289 30.42306137084961 L 124.6021194458008 30.41804122924805 C 122.8387832641602 29.55760192871094 121.7173767089844 27.5294017791748 121.675537109375 25.12492179870605 C 121.631103515625 22.5710277557373 122.8280258178711 20.33190536499023 124.8000564575195 19.27852439880371 C 126.8670120239258 18.11373329162598 129.2133178710938 17.49814033508301 131.5860595703125 17.49814033508301 C 133.812744140625 17.49814033508301 136.0321350097656 18.04470062255859 138.0043029785156 19.07876014709473 L 138.0115814208984 19.08260154724121 L 138.018798828125 19.08658027648926 C 139.3294982910156 19.81094169616699 140.3741607666016 20.90288162231445 141.039794921875 22.24438095092773 C 141.7054443359375 23.58588027954102 141.9431457519531 25.07826042175293 141.7271575927734 26.56016159057617 L 141.6336212158203 27.20200157165527 L 140.9850006103516 27.20200157165527 L 139.4280242919922 27.20200157165527 L 138.6780242919922 27.20200157165527 L 138.6780242919922 26.69597244262695 C 138.6076812744141 26.58972358703613 138.5421600341797 26.44342231750488 138.5372924804688 26.25631523132324 C 138.3499298095703 21.53856468200684 134.2671356201172 20.83380126953125 131.8493041992188 20.83380126953125 C 131.4193572998047 20.83380126953125 130.9727020263672 20.85601997375488 130.5216064453125 20.89980125427246 C 129.2696380615234 21.04653358459473 128.0658569335938 21.41188812255859 126.9434432983398 21.98578071594238 L 126.9287033081055 21.99332046508789 L 126.9136428833008 22.00018119812012 C 125.7227630615234 22.5442008972168 125.0031204223633 23.7856616973877 125.1228637695312 25.08940124511719 L 125.1259384155273 25.12288093566895 L 125.1259994506836 25.15652084350586 C 125.1285781860352 26.46000099182129 125.9562225341797 27.62712097167969 127.1854782104492 28.06072044372559 L 127.1899795532227 28.06230163574219 L 127.1944427490234 28.06394195556641 C 128.5587768554688 28.56474113464355 130.0238037109375 28.94774055480957 131.4405822753906 29.31810188293457 C 132.0132598876953 29.46782302856445 132.6053924560547 29.62262535095215 133.1863708496094 29.78387260437012 L 138.06982421875 31.06142044067383 L 138.0915985107422 31.0671215057373 L 138.1130065917969 31.07410049438477 C 139.3759765625 31.48688125610352 140.4694366455078 32.2635612487793 141.2751159667969 33.32018280029297 C 142.0732269287109 34.36684799194336 142.5316925048828 35.61321258544922 142.6022338867188 36.92667388916016 C 143.0214691162109 39.85798645019531 141.5352325439453 42.71920013427734 138.8940887451172 44.06135940551758 C 137.1016845703125 45.07129287719727 134.7579345703125 45.62726211547852 132.2919006347656 45.62728118896484 Z M 86.26699829101562 45.06399917602539 L 85.51699829101562 45.06399917602539 L 83.68099975585938 45.06399917602539 L 82.93099975585938 45.06399917602539 L 82.93099975585938 44.31399917602539 L 82.93099975585938 18.95200157165527 L 82.93099975585938 18.20200157165527 L 83.68099975585938 18.20200157165527 L 85.48600006103516 18.20200157165527 L 86.23600006103516 18.20200157165527 L 86.23600006103516 18.95200157165527 L 86.23600006103516 21.82788276672363 C 87.11919403076172 20.83209609985352 88.14292144775391 20.04607391357422 89.32846069335938 19.4493408203125 C 91.01705932617188 18.59938049316406 92.99726104736328 18.15880012512207 95.38226318359375 18.10238075256348 L 96.15000152587891 18.08422088623047 L 96.15000152587891 18.6498966217041 L 96.64720153808594 19.57328033447266 L 96.15000152587891 19.58487892150879 L 96.15000152587891 20.64400100708008 L 96.15000152587891 21.4448413848877 L 95.35088348388672 21.39240074157715 C 95.16551971435547 21.38022041320801 94.97740173339844 21.37406158447266 94.79174041748047 21.37406158447266 C 92.56204223632812 21.37406158447266 90.45258331298828 22.22924041748047 88.85199737548828 23.78206062316895 C 87.12409973144531 25.45840072631836 86.18173980712891 27.79968070983887 86.26654052734375 30.20558166503906 L 86.26699829101562 30.21878051757812 L 86.26699829101562 30.23200035095215 L 86.26699829101562 44.31399917602539 L 86.26699829101562 45.06399917602539 Z" stroke="none"/>
      <path d="M 56.47500610351562 53.60600280761719 L 58.50998687744141 53.60000228881836 L 58.51000595092773 39.81800079345703 C 60.01369476318359 42.64356231689453 62.84773635864258 44.51372909545898 66.0369873046875 44.78499984741211 C 71.0809326171875 45.56502532958984 75.79300689697266 43.44000625610352 77.70000457763672 39.16500091552734 C 80.08600616455078 34.22329330444336 79.93248748779297 28.43233489990234 77.28798675537109 23.62400054931641 C 75.23998260498047 19.80900001525879 71.75592803955078 18.22203063964844 67.46898651123047 18.35000038146973 C 63.85210800170898 18.30943870544434 60.53875350952148 20.36541557312012 58.9690055847168 23.62400054931641 C 58.78229904174805 23.89416694641113 58.57713317871094 24.15112686157227 58.35500717163086 24.39300155639648 L 58.35500717163086 18.94000053405762 L 56.47500610351562 18.94000053405762 L 56.47500610351562 53.60600280761719 M 68.03389739990234 20.01423263549805 C 71.41400909423828 20.01423263549805 74.53708648681641 21.99566459655762 75.94398498535156 25.1510009765625 C 77.82563018798828 29.0432300567627 77.94617462158203 33.55587768554688 76.27498626708984 37.54299926757812 C 74.79199981689453 41.49452209472656 70.72367858886719 43.84772872924805 66.55900573730469 43.16300201416016 C 62.25800704956055 42.64800262451172 59.51900863647461 39.90999984741211 58.77600860595703 35.27700042724609 L 58.35500717163086 31.19900131225586 C 58.56875610351562 29.56097984313965 58.87659072875977 27.93662643432617 59.27700805664062 26.3340015411377 C 60.20654678344727 22.86250114440918 63.23267364501953 20.36054229736328 66.81700897216797 20.10000038146973 C 67.22476959228516 20.04235076904297 67.6309814453125 20.01423263549805 68.03389739990234 20.01423263549805 M 155.979248046875 44.97739410400391 C 157.9900512695312 44.97733306884766 160.0003051757812 44.55173492431641 161.8710021972656 43.70199966430664 C 164.29931640625 42.67543792724609 165.8497009277344 40.26483535766602 165.7765045166016 37.62945938110352 C 165.7033233642578 34.99408340454102 164.0215759277344 32.6732292175293 161.5400238037109 31.78300094604492 C 160.7285308837891 31.4819393157959 159.8997192382812 31.22981262207031 159.0580139160156 31.02800178527832 L 151.2750091552734 29.02800178527832 C 149.4201049804688 28.58064651489258 148.1360473632812 26.88989639282227 148.2030029296875 24.98300170898438 C 148.2175140380859 23.04823112487793 149.5048217773438 21.3542308807373 151.3650054931641 20.82200050354004 C 153.6552734375 19.91896438598633 156.1795806884766 19.79733276367188 158.5460205078125 20.47600173950195 C 161.131591796875 20.96420860290527 163.0220642089844 23.19633483886719 163.0780029296875 25.82700157165527 C 163.1338653564453 26.0324592590332 163.1726531982422 26.24216842651367 163.1940002441406 26.45400047302246 L 164.8940124511719 26.45400047302246 L 164.8780059814453 26.44600105285645 C 165.2028961181641 23.8134593963623 163.9427185058594 21.23737525939941 161.6649932861328 19.87800025939941 C 157.7005767822266 17.69182205200195 152.8799438476562 17.74532890319824 148.9650115966797 20.01900100708008 C 145.3150024414062 21.99100112915039 145.5720062255859 28.17400169372559 148.7720031738281 29.74900054931641 C 150.7926330566406 30.64662551879883 152.8761749267578 31.39529228210449 155.0060119628906 31.98900032043457 C 157.0410003662109 32.65500259399414 159.1630096435547 33.05100250244141 161.1630096435547 33.79400253295898 C 162.8404235839844 34.3536262512207 163.9427185058594 35.95849990844727 163.8630065917969 37.72500228881836 C 163.9480133056641 39.50754165649414 162.9882965087891 41.17668914794922 161.4050140380859 42 C 158.8201141357422 43.6716423034668 155.5771331787109 43.96101760864258 152.7371368408203 42.7734375 C 149.8971252441406 41.58585357666016 147.8254699707031 39.07410430908203 147.2000122070312 36.06000137329102 L 145.5360107421875 36.06000137329102 C 145.3590545654297 39.39860534667969 147.2799377441406 42.49422836303711 150.3500061035156 43.81800079345703 C 152.1479187011719 44.59139251708984 154.0638275146484 44.97745513916016 155.979248046875 44.97739410400391 M 19.00114250183105 44.9713020324707 C 20.97175598144531 44.97116088867188 22.95639419555664 44.48760223388672 24.76900672912598 43.49700164794922 C 27.49940299987793 41.85993957519531 29.32958984375 39.0625 29.73600769042969 35.90500259399414 C 28.53600692749023 35.53300476074219 27.88300704956055 35.75400543212891 27.48300743103027 37.03300094604492 C 26.86354827880859 39.58779144287109 25.00248527526855 41.66072845458984 22.52900695800781 42.55100250244141 C 15.01501369476318 45.05998611450195 9.141006469726562 40.14400100708008 9.472006797790527 32.00300216674805 L 29.95500755310059 32.00300216674805 C 30.13300704956055 27.44500160217285 29.22600746154785 23.40000152587891 25.59000778198242 20.54500198364258 C 19.3799991607666 15.66799545288086 10.35400581359863 18.94499969482422 8.140007019042969 26.81800079345703 L 7.334006786346436 30.80000114440918 L 7.329006671905518 30.79500198364258 C 7.329006671905518 31.51966857910156 7.334006786346436 32.26166915893555 7.344007015228271 33.02099990844727 C 7.483985900878906 33.43454360961914 7.570027828216553 33.86443710327148 7.600007057189941 34.29999923706055 C 7.814610958099365 37.04425048828125 8.920840263366699 39.64302062988281 10.75000667572021 41.70000076293945 C 13.03783130645752 43.85337066650391 16.00383186340332 44.97151565551758 19.00114250183105 44.9713020324707 M 19.06381225585938 20.11798667907715 C 19.11317443847656 20.11798667907715 19.16339111328125 20.11832809448242 19.2130069732666 20.1190013885498 C 24.18100738525391 20.15800094604492 27.90500640869141 24.34600067138672 28.0210075378418 30.24600028991699 L 9.500006675720215 30.24600028991699 L 9.483006477355957 30.21900177001953 C 9.724817276000977 24.19256019592285 13.61159038543701 20.11798667907715 19.06381225585938 20.11798667907715 M 107.0271072387695 44.89950180053711 C 107.3002471923828 44.89949798583984 107.5790634155273 44.89240646362305 107.8630065917969 44.87800216674805 C 112.9452362060547 44.79704284667969 117.1820907592773 40.96552276611328 117.7720031738281 35.91699981689453 L 117.7850036621094 35.92100143432617 C 116.6329879760742 35.56198883056641 115.9800033569336 35.74101257324219 115.6220092773438 37.00900268554688 C 114.0100021362305 41.95100021362305 109.5700149536133 44.2030029296875 104.3700103759766 42.92399978637695 C 100.1970062255859 41.86199951171875 97.25300598144531 37.45800018310547 97.63700866699219 31.97900009155273 L 118.3470306396484 31.97900009155273 C 118.1593856811523 30.04381370544434 117.8645935058594 28.12054252624512 117.4640045166016 26.2180004119873 C 116.4281539916992 21.93322944641113 112.7673416137695 18.79158401489258 108.3750076293945 18.41800117492676 C 103.7528076171875 17.76833152770996 99.24214172363281 20.18673133850098 97.22500610351562 24.3960018157959 C 95.81313323974609 27.3856258392334 95.28040313720703 30.71508407592773 95.68901062011719 33.99600219726562 C 96.25582885742188 39.82138824462891 99.71520233154297 44.89963912963867 107.0271072387695 44.89950180053711 M 107.285514831543 20.08853912353516 C 107.3452835083008 20.08853912353516 107.405876159668 20.08902931213379 107.4660034179688 20.09000015258789 C 112.3960037231445 20.13800048828125 116.0300064086914 24.38000106811523 116.1460037231445 30.21700096130371 L 97.62200927734375 30.21700096130371 C 97.86337280273438 24.13838768005371 101.8126525878906 20.08853912353516 107.285514831543 20.08853912353516 M 132.2918853759766 44.87728500366211 C 134.5330963134766 44.87725830078125 136.7730102539062 44.39984512329102 138.5399932861328 43.40000152587891 C 140.90869140625 42.20391845703125 142.2446136474609 39.62479400634766 141.8550109863281 37 C 141.7399597167969 34.60589599609375 140.1582794189453 32.5316047668457 137.8800048828125 31.78700065612793 L 132.9910125732422 30.50800132751465 C 130.9670104980469 29.94600105285645 128.8920135498047 29.48600196838379 126.9360046386719 28.76800155639648 C 125.4045867919922 28.22783470153809 124.3792114257812 26.78189659118652 124.3760070800781 25.15800094604492 C 124.2269439697266 23.53508377075195 125.11962890625 21.99516677856445 126.6020050048828 21.31800079345703 C 127.8024063110352 20.70425033569336 129.1028594970703 20.31004333496094 130.4420013427734 20.15400123596191 C 134.922119140625 19.71700668334961 139.093994140625 21.27000045776367 139.2870025634766 26.23400115966797 C 139.2870025634766 26.31100082397461 139.4280090332031 26.37700080871582 139.4280090332031 26.45200157165527 L 140.9850006103516 26.45200157165527 C 141.3801574707031 23.74070930480957 140.0540618896484 21.06829261779785 137.6560211181641 19.74300193786621 C 133.72802734375 17.68344879150391 129.0235748291016 17.75607299804688 125.1610260009766 19.93600082397461 C 121.4490051269531 21.91000175476074 121.6520080566406 28.14400100708008 124.9310302734375 29.7440013885498 C 126.9396286010742 30.64931297302246 129.0118408203125 31.40633392333984 131.1310119628906 32.00900268554688 C 133.1660308837891 32.66200256347656 135.2880096435547 33.07099914550781 137.2880096435547 33.81399917602539 C 138.9600524902344 34.38931274414062 140.0472412109375 36.00437545776367 139.9510040283203 37.77000045776367 C 140.0816955566406 39.59508514404297 139.0594482421875 41.30777359008789 137.3910064697266 42.05900192260742 C 134.3652801513672 43.61657333374023 130.7947235107422 43.7108268737793 127.6910095214844 42.31500244140625 C 125.2024688720703 41.19104385375977 123.5519866943359 38.76918792724609 123.4160079956055 36.04199981689453 L 121.6049575805664 36.04199981689453 C 121.5883102416992 38.31832504272461 122.4818725585938 40.50680160522461 124.0869827270508 42.12100219726562 C 125.9267807006836 43.91562271118164 129.1107482910156 44.87732696533203 132.2918853759766 44.87728500366211 M 52.34280014038086 44.44028854370117 C 52.68866729736328 44.44028854370117 53.03958511352539 44.37881088256836 53.38000869750977 44.25 L 53.36100769042969 44.24700164794922 L 44.14400863647461 31.94700050354004 C 43.87258911132812 31.70435523986816 43.71746444702148 31.35756301879883 43.71746444702148 30.99350166320801 C 43.71746444702148 30.62943840026855 43.87258911132812 30.28264617919922 44.14400863647461 30.04000091552734 L 48.98300552368164 23.7400016784668 L 52.55600738525391 19.00000190734863 C 51.25516891479492 18.49654769897461 49.78332138061523 19.04558181762695 49.13000869750977 20.27800178527832 L 42.23000717163086 29.50800132751465 L 35.3700065612793 20.24200057983398 C 34.61106491088867 19.00462532043457 33.08743667602539 18.47043418884277 31.72200775146484 18.9630012512207 L 40.92800521850586 30.9630012512207 L 31.02800750732422 44.23800277709961 C 32.35760879516602 44.71871566772461 33.83742141723633 44.1378173828125 34.48500823974609 42.88100051879883 L 42.16500854492188 32.43500137329102 L 43.12500762939453 33.7140007019043 L 49.7440071105957 42.86800003051758 C 50.26337814331055 43.85927963256836 51.27939605712891 44.44028854370117 52.34280014038086 44.44028854370117 M 85.51700592041016 44.31399917602539 L 85.51700592041016 30.23200035095215 C 85.42456817626953 27.60970878601074 86.44646453857422 25.07083511352539 88.32975769042969 23.24375152587891 C 90.21304321289062 21.41669082641602 92.78168487548828 20.47216033935547 95.40000915527344 20.64400100708008 L 95.40000915527344 18.8521671295166 C 91.11429595947266 18.95354843139648 87.69879150390625 20.36308288574219 85.48600769042969 24.15200042724609 L 85.48600769042969 18.95200157165527 L 83.68100738525391 18.95200157165527 L 83.68100738525391 44.31399917602539 L 85.51700592041016 44.31399917602539 M 121.6049575805664 36.04199981689453 C 121.6049575805664 36.04172134399414 121.6049652099609 36.04127883911133 121.6049652099609 36.04100036621094 L 121.6000061035156 36.04199981689453 L 121.6049575805664 36.04199981689453 M 95.40000915527344 18.8521671295166 C 95.40235900878906 18.85210990905762 95.40464782714844 18.8520565032959 95.40700531005859 18.85200119018555 L 95.40000915527344 18.8390007019043 L 95.40000915527344 18.8521671295166 M 54.97500610351562 55.11043930053711 L 54.97500610351562 45.25024795532227 L 53.91086196899414 45.65291595458984 C 53.40694427490234 45.84360504150391 52.87936019897461 45.94029235839844 52.34280014038086 45.94029235839844 C 50.72776031494141 45.94029235839844 49.25539779663086 45.07293701171875 48.47175979614258 43.6684684753418 L 42.17266082763672 34.95688629150391 L 35.75665283203125 43.68366622924805 C 34.99599075317383 45.05782318115234 33.56241226196289 45.90589904785156 31.98398590087891 45.90602111816406 C 31.48381996154785 45.90608596801758 30.99057006835938 45.81949996948242 30.51800727844238 45.64864730834961 L 28.6172981262207 44.96146011352539 L 39.04726791381836 30.97581100463867 L 29.2830696105957 18.24818801879883 L 31.2130069732666 17.552001953125 C 31.71142387390137 17.3722095489502 32.23190307617188 17.28104209899902 32.76002883911133 17.28104209899902 C 34.31107711791992 17.28104209899902 35.7796745300293 18.08987045288086 36.61050415039062 19.39666938781738 L 42.23584747314453 26.99497985839844 L 47.86652755737305 19.46292495727539 C 48.6225471496582 18.13406181335449 50.02724456787109 17.31398010253906 51.56319427490234 17.31398010253906 C 52.08892440795898 17.31398010253906 52.60511016845703 17.41058349609375 53.09740447998047 17.60110473632812 L 54.94879913330078 18.317626953125 L 50.17258834838867 24.65370941162109 L 45.3034782409668 30.99291229248047 L 54.19630432128906 42.86030578613281 L 54.97500610351562 42.98326110839844 L 54.97500610351562 17.44000053405762 L 59.85500717163086 17.44000053405762 L 59.85500717163086 19.87957572937012 C 60.38864135742188 19.3652458190918 60.97634124755859 18.90478897094727 61.61088180541992 18.50631332397461 C 63.33696365356445 17.42235565185547 65.32636260986328 16.84941864013672 67.36405181884766 16.84941864013672 C 67.39419555664062 16.84941864013672 67.42418670654297 16.84954452514648 67.45429229736328 16.84979629516602 C 67.61798858642578 16.84518623352051 67.7822265625 16.84285545349121 67.94292449951172 16.84285545349121 C 72.78611755371094 16.84285545349121 76.47324371337891 18.9401741027832 78.60611724853516 22.90806007385254 C 81.47201538085938 28.12407684326172 81.64144134521484 34.43538284301758 79.06031799316406 39.79746627807617 C 78.13491821289062 41.86016464233398 76.60086822509766 43.56564331054688 74.62258911132812 44.73081207275391 C 72.71998596191406 45.8514404296875 70.45771789550781 46.4438362121582 68.08038330078125 46.4439582824707 C 67.34677124023438 46.4439811706543 66.59939575195312 46.38716125488281 65.85809326171875 46.27507400512695 C 64.06266784667969 46.11365509033203 62.32001876831055 45.50432968139648 60.81523513793945 44.51133346557617 C 60.53770065307617 44.32819366455078 60.26907348632812 44.13254547119141 60.01000213623047 43.9251708984375 L 60.00998687744141 55.09558486938477 L 54.97500610351562 55.11043930053711 Z M 60.26359558105469 35.07963943481445 C 60.90739822387695 39.01808166503906 63.08526611328125 41.23634719848633 66.73734283447266 41.67364501953125 L 66.80232238769531 41.68287658691406 C 67.19790649414062 41.74789810180664 67.60057067871094 41.78087615966797 67.99910736083984 41.7808952331543 C 71.03950500488281 41.78104400634766 73.80096435546875 39.86614608764648 74.87062835693359 37.01596069335938 L 74.89159393310547 36.9631462097168 C 76.39575958251953 33.3745231628418 76.287109375 29.30710601806641 74.593505859375 25.80387687683105 L 74.57400512695312 25.76185607910156 C 73.42348480224609 23.18152236938477 70.85633850097656 21.51423072814941 68.03390502929688 21.51423072814941 C 67.69902801513672 21.51423072814941 67.36023712158203 21.53812599182129 67.02696228027344 21.58522987365723 L 66.97654724121094 21.59235572814941 L 66.92575836181641 21.5960636138916 C 63.98524475097656 21.80980491638184 61.49657440185547 23.8643913269043 60.72915649414062 26.71010208129883 C 60.35946655273438 28.19171524047852 60.06891250610352 29.70927047729492 59.86484909057617 31.22383308410645 L 60.26359558105469 35.07963943481445 Z M 155.9792938232422 46.47739791870117 L 155.9792633056641 44.97739791870117 L 155.9792938232422 46.47739791870117 C 153.8275909423828 46.47745895385742 151.7341918945312 46.04631423950195 149.7572784423828 45.19591903686523 C 147.9668884277344 44.4239387512207 146.4781494140625 43.14104080200195 145.4508209228516 41.48545837402344 C 144.4234924316406 39.82985687255859 143.9349822998047 37.92631530761719 144.0381164550781 35.98060607910156 L 144.1134033203125 34.56000137329102 L 148.4207000732422 34.56000137329102 L 148.6687164306641 35.75522994995117 C 149.1939086914062 38.28608322143555 150.9311370849609 40.39237594604492 153.3158264160156 41.38956451416016 C 154.2779693603516 41.79189682006836 155.2943267822266 41.99589538574219 156.3367156982422 41.99589538574219 C 157.8495025634766 41.99589538574219 159.3204193115234 41.56177139282227 160.5904388427734 40.74044036865234 L 160.6500244140625 40.70191955566406 L 160.7129821777344 40.66916656494141 C 161.7733001708984 40.11781311035156 162.421630859375 38.99020767211914 162.3647155761719 37.79644012451172 L 162.3614044189453 37.7269172668457 L 162.3645324707031 37.65739822387695 C 162.4137725830078 36.56616592407227 161.7244873046875 35.56260681152344 160.6882934570312 35.21689605712891 L 160.640625 35.20010375976562 C 159.5806579589844 34.80631256103516 158.4804077148438 34.51529312133789 157.3155517578125 34.20716857910156 C 156.4173736572266 33.96957778930664 155.4889678955078 33.72400283813477 154.5712280273438 33.42498016357422 C 152.3893127441406 32.81504821777344 150.2334136962891 32.03955078125 148.1630554199219 31.11983489990234 L 148.1096038818359 31.09481430053711 C 146.1197814941406 30.11543846130371 144.8520660400391 27.84327125549316 144.8012084960938 25.16500091552734 C 144.748046875 22.36469268798828 146.0616607666016 19.89410972595215 148.2309112548828 18.71074676513672 C 150.4190673828125 17.44448471069336 152.9113159179688 16.7752513885498 155.4397125244141 16.7752513885498 C 157.8635559082031 16.7752513885498 160.2666778564453 17.39395904541016 162.3893127441406 18.56447982788086 L 162.4337158203125 18.5899600982666 C 165.2204284667969 20.25308418273926 166.7642211914062 23.40889739990234 166.3667144775391 26.62973022460938 L 165.2394561767578 26.49061012268066 L 164.8940124511719 27.95400047302246 L 161.8376159667969 27.95400047302246 L 161.7015686035156 26.60443878173828 C 161.6885223388672 26.47508430480957 161.6646270751953 26.34589767456055 161.6305541992188 26.22050094604492 L 161.5822601318359 26.04289627075195 L 161.5783386230469 25.85889625549316 C 161.5377197265625 23.94843864440918 160.1454010009766 22.30450057983398 158.2677154541016 21.94995880126953 L 158.1993865966797 21.93704223632812 L 158.1325225830078 21.91787528991699 C 157.2649078369141 21.66906356811523 156.3673858642578 21.54289627075195 155.4649200439453 21.54289627075195 C 154.2446899414062 21.54289627075195 153.0503997802734 21.76985549926758 151.9152221679688 22.21743774414062 L 151.8475494384766 22.24412536621094 L 151.7776336669922 22.26412582397461 C 150.5655517578125 22.61093902587891 149.71240234375 23.73358345031738 149.7029724121094 24.9942512512207 L 149.7020874023438 25.03564643859863 C 149.6603240966797 26.22500038146973 150.4697418212891 27.290771484375 151.6266937255859 27.5698127746582 L 151.6483459472656 27.57520866394043 L 159.4191589355469 29.57207870483398 C 160.3092803955078 29.78600311279297 161.1958770751953 30.05575752258301 162.0544128417969 30.37393760681152 C 163.553955078125 30.91366577148438 164.8407745361328 31.88097763061523 165.7760314941406 33.17164611816406 C 166.7129516601562 34.46460342407227 167.2316131591797 35.9917106628418 167.2759246826172 37.58781433105469 C 167.3202514648438 39.18393707275391 166.8871459960938 40.73746109008789 166.0234222412109 42.08041763305664 C 165.1634063720703 43.41765975952148 163.9364013671875 44.45296859741211 162.4739837646484 45.07558441162109 C 160.4198608398438 46.00571060180664 158.2348785400391 46.47733306884766 155.9792938232422 46.47739791870117 Z M 19.00125694274902 46.47129440307617 C 19.00123596191406 46.47129440307617 19.00123596191406 46.47129440307617 19.00123596191406 46.47129440307617 C 15.53825664520264 46.47156524658203 12.24279880523682 45.16498184204102 9.721923828125 42.79227066040039 L 9.673381805419922 42.74658584594727 L 9.629090309143066 42.69677352905273 C 7.594923496246338 40.40927124023438 6.343235969543457 37.46877288818359 6.104569435119629 34.41693878173828 L 6.103548526763916 34.40299987792969 C 6.082444190979004 34.09627151489258 6.021756649017334 33.79310607910156 5.923194408416748 33.50193786621094 L 5.847256660461426 33.27758407592773 L 5.844131946563721 33.04075241088867 C 5.834090232849121 32.27841949462891 5.829006671905518 31.52283477783203 5.829006671905518 30.79500198364258 L 5.829006671905518 27.1736888885498 L 6.418309688568115 27.76298713684082 L 6.680902481079102 26.46568870544434 L 6.696006774902344 26.41193771362305 C 7.504965305328369 23.53533363342285 9.152902603149414 21.0888557434082 11.46167373657227 19.33700180053711 C 13.65911102294922 17.66962623596191 16.35211181640625 16.75135612487793 19.04458999633789 16.75135612487793 C 21.75525665283203 16.75135612487793 24.3390064239502 17.65525054931641 26.51646614074707 19.36531448364258 C 28.45229911804199 20.88533401489258 29.83394432067871 22.83243942260742 30.62288093566895 25.15243911743164 C 31.28729820251465 27.10625076293945 31.55913162231445 29.36623001098633 31.45386123657227 32.06154251098633 L 31.39756965637207 33.50300216674805 L 10.98559379577637 33.50300216674805 C 11.14103031158447 35.95593643188477 11.96969604492188 38.06077194213867 13.37823581695557 39.52775192260742 C 14.748215675354 40.95456314086914 16.58846473693848 41.7087287902832 18.70002746582031 41.7087287902832 C 19.76675415039062 41.7087287902832 20.88944816589355 41.51529693603516 22.03722763061523 41.1337890625 C 24.03426170349121 40.40895843505859 25.52441787719727 38.74504470825195 26.0252571105957 36.67954254150391 L 26.03677749633789 36.63198089599609 L 26.05138206481934 36.58525085449219 C 26.65704917907715 34.64868927001953 27.90413093566895 34.2421875 28.84363174438477 34.2421875 C 29.24358940124512 34.2421875 29.68077850341797 34.31745910644531 30.18017387390137 34.47227096557617 L 31.38473510742188 34.84571075439453 L 31.22373580932617 36.09650039672852 C 30.99556922912598 37.86919021606445 30.35773658752441 39.59672927856445 29.37923622131348 41.09237670898438 C 28.40071487426758 42.58804321289062 27.0732364654541 43.86439514160156 25.54034042358398 44.78348159790039 L 25.48836135864258 44.81325149536133 C 23.50383949279785 45.89781188964844 21.2606315612793 46.47114562988281 19.00123596191406 46.47129440307617 L 19.00125694274902 46.47129440307617 Z M 11.13901329040527 28.74600028991699 L 26.39761924743652 28.74600028991699 C 25.78227615356445 24.50927925109863 22.97345924377441 21.64856338500977 19.20123672485352 21.61895942687988 L 19.19286155700684 21.61887550354004 C 14.97390651702881 21.5615177154541 11.87531280517578 24.37892723083496 11.13901329040527 28.74600028991699 Z M 107.0271301269531 46.39950180053711 C 107.0271072387695 46.39950180053711 107.0271072387695 46.39950180053711 107.0271072387695 46.39950180053711 C 105.0675659179688 46.39954376220703 103.2664260864258 46.06318664550781 101.6737594604492 45.39977264404297 C 100.160400390625 44.76937484741211 98.83286285400391 43.84470748901367 97.72798919677734 42.65141677856445 C 95.75511932373047 40.52066421508789 94.53471374511719 37.58517074584961 94.19797515869141 34.16093444824219 C 93.75820922851562 30.59880065917969 94.33578491210938 27.00124359130859 95.86865234375 23.75545883178711 L 95.87229919433594 23.74777221679688 C 96.12468719482422 23.22110366821289 96.41294860839844 22.7158203125 96.73447418212891 22.23482322692871 L 95.3017578125 22.14077186584473 C 95.13277435302734 22.12968826293945 94.96117401123047 22.12406349182129 94.79171752929688 22.12406349182129 C 92.75807189941406 22.12406349182129 90.83411407470703 22.9040641784668 89.37423706054688 24.32035446166992 C 87.79823303222656 25.84931373596191 86.93871307373047 27.98477172851562 87.01606750488281 30.17916679382324 L 87.01700592041016 30.23200035095215 L 87.01700592041016 45.81399917602539 L 82.18100738525391 45.81399917602539 L 82.18100738525391 17.45200157165527 L 86.98600769042969 17.45200157165527 L 86.98600769042969 20.0760555267334 C 89.13291168212891 18.3312816619873 91.90548706054688 17.43441390991211 95.36452484130859 17.35258483886719 L 96.90000915527344 17.3162727355957 L 96.90000915527344 18.4608268737793 L 97.88321685791016 20.28679275512695 L 96.90000915527344 20.31289672851562 L 96.90000915527344 21.99350547790527 C 97.8309326171875 20.67061996459961 99.01829528808594 19.54263114929199 100.4028625488281 18.67577171325684 C 102.3490676879883 17.4572925567627 104.5887985229492 16.81325149536133 106.8799667358398 16.81325149536133 C 107.4333572387695 16.81325149536133 107.9926223754883 16.85148239135742 108.54296875 16.92694282531738 C 113.5679321289062 17.37166786193848 117.7358703613281 20.95910835266113 118.922004699707 25.86552238464355 L 118.9318161010742 25.90895843505859 C 119.3422164916992 27.85810470581055 119.6477813720703 29.85164642333984 119.8400268554688 31.83423042297363 L 119.9995040893555 33.47900009155273 L 99.11576843261719 33.47900009155273 C 99.29898071289062 37.44910430908203 101.4866790771484 40.63953018188477 104.7346343994141 41.46897888183594 C 105.5665740966797 41.67310333251953 106.3851852416992 41.77662658691406 107.1677169799805 41.77662658691406 C 110.5410842895508 41.77662658691406 113.0983657836914 39.87900924682617 114.1877365112305 36.56891250610352 C 114.7688446044922 34.55892181396484 116.1363677978516 34.25785446166992 116.9025039672852 34.25785446166992 C 117.3031311035156 34.25785446166992 117.7253646850586 34.33127212524414 118.2312545776367 34.48891830444336 L 117.788459777832 35.91892242431641 L 119.2618637084961 36.09108352661133 C 118.9343414306641 38.89402008056641 117.6012802124023 41.48006439208984 115.5082397460938 43.37287521362305 C 113.4216918945312 45.25979614257812 110.7255554199219 46.32619857788086 107.9134292602539 46.37736129760742 C 107.6153793334961 46.39205551147461 107.3173217773438 46.39950180053711 107.0271072387695 46.39950180053711 L 107.0271301269531 46.39950180053711 Z M 99.28231811523438 28.71700096130371 L 114.5236663818359 28.71700096130371 C 113.9164733886719 24.48616981506348 111.1562576293945 21.62599563598633 107.4514007568359 21.58993911743164 L 107.4415893554688 21.58979225158691 C 107.3895874023438 21.58895874023438 107.3371963500977 21.58854293823242 107.2855072021484 21.58854293823242 C 103.0933227539062 21.58854293823242 100.0226516723633 24.39351463317871 99.28231811523438 28.71700096130371 Z M 132.2919006347656 46.37729263305664 C 128.5413970947266 46.37733459472656 125.0825881958008 45.18760681152344 123.0395889282227 43.19475173950195 L 123.0233383178711 43.17866897583008 C 122.084114074707 42.23410415649414 121.3525924682617 41.12994003295898 120.8490905761719 39.89681243896484 C 120.3456115722656 38.66364669799805 120.0952606201172 37.36300277709961 120.1050033569336 36.03102111816406 L 120.1159057617188 34.54199981689453 L 121.4502487182617 34.54199981689453 L 123.1049652099609 34.20827102661133 L 123.1049652099609 34.54199981689453 L 124.8430709838867 34.54199981689453 L 124.9141540527344 35.96729278564453 C 125.0226135253906 38.14287567138672 126.3232345581055 40.05133438110352 128.3084259033203 40.94795989990234 C 129.5624237060547 41.51191711425781 130.8977813720703 41.79837417602539 132.2752227783203 41.79841613769531 C 133.8090667724609 41.79845809936523 135.3406677246094 41.42739868164062 136.7044677734375 40.72533416748047 L 136.7751770019531 40.69124984741211 C 137.8652191162109 40.200439453125 138.5402221679688 39.06954193115234 138.454833984375 37.87712478637695 L 138.4480895996094 37.78281402587891 L 138.4532318115234 37.68837738037109 C 138.5126800537109 36.59770965576172 137.8328247070312 35.58777236938477 136.7999725341797 35.23239517211914 L 136.765625 35.2201042175293 C 135.6765289306641 34.81550216674805 134.5468139648438 34.51552200317383 133.3507995605469 34.19791793823242 C 132.4817504882812 33.9671516418457 131.5832977294922 33.72856521606445 130.6967010498047 33.44496154785156 C 128.5225524902344 32.82538986206055 126.3754959106445 32.04035949707031 124.3146743774414 31.11152267456055 L 124.2732391357422 31.09208488464355 C 122.2551345825195 30.10733413696289 120.9724044799805 27.82585525512695 120.925651550293 25.13797950744629 C 120.8763427734375 22.30420112609863 122.2222366333008 19.80904006958008 124.4395370483398 18.62080955505371 C 126.6167831420898 17.39555931091309 129.0874481201172 16.74812698364258 131.5860290527344 16.74812698364258 C 133.9335479736328 16.74812698364258 136.2733764648438 17.32435607910156 138.3525695800781 18.41454315185547 L 138.381591796875 18.43014717102051 C 139.8263854980469 19.2286262512207 140.9779052734375 20.43229293823242 141.7116394042969 21.9110221862793 C 142.4453887939453 23.38975143432617 142.7073974609375 25.03481292724609 142.4693145751953 26.6683349609375 L 142.2822418212891 27.95200157165527 L 137.9280090332031 27.95200157165527 L 137.9280090332031 26.88482093811035 C 137.8405303955078 26.6945858001709 137.7935638427734 26.49257278442383 137.7876434326172 26.2800464630127 C 137.6302490234375 22.39887428283691 134.4723205566406 21.58381271362305 131.8493041992188 21.58381271362305 C 131.4457702636719 21.58381271362305 131.0260314941406 21.60458755493164 130.6014862060547 21.64557456970215 C 129.4411315917969 21.7824535369873 128.3253631591797 22.12156867980957 127.2848587036133 22.653564453125 L 127.2252807617188 22.68237686157227 C 126.3238372802734 23.09416770935059 125.7790679931641 24.0339183807373 125.8697128295898 25.02081298828125 L 125.875862121582 25.08777236938477 L 125.8760070800781 25.15504264831543 C 125.8779449462891 26.14175033569336 126.5044479370117 27.02520942687988 127.4349670410156 27.35341835021973 L 127.4529037475586 27.35987663269043 C 128.7834014892578 27.8482723236084 130.1662750244141 28.20977210998535 131.6303558349609 28.59252166748047 C 132.2036590576172 28.74238204956055 132.7962951660156 28.89731025695801 133.3806457519531 29.05945014953613 L 138.3031921386719 30.34723091125488 L 138.3459930419922 30.36120986938477 C 139.7541351318359 30.82143783569336 140.9732360839844 31.68737602233887 141.8715057373047 32.86541748046875 C 142.754638671875 34.02361297607422 143.2648010253906 35.4010009765625 143.3493041992188 36.85327911376953 C 143.7975769042969 40.08616638183594 142.1571655273438 43.23698806762695 139.2478637695312 44.72285079956055 C 137.3468322753906 45.78992462158203 134.8783111572266 46.37725067138672 132.2919006347656 46.37729263305664 Z" stroke="none" fill="#000"/>
    </g>
  </g>
</svg>
