<svg xmlns="http://www.w3.org/2000/svg" width="180" height="180" viewBox="0 0 180 180">
  <g id="Express" transform="translate(-857 -979)">
    <path id="Path_283" data-name="Path 283" d="M0,0H180V180H0Z" transform="translate(857 979)" fill="#fff"/>
    <path id="expressjs-icon" d="M173.849,104.956c-6.324,1.608-10.235.071-13.745-5.2L135.145,65.226l-3.607-4.781L102.391,99.871c-3.33,4.743-6.824,6.807-13.039,5.129l37.323-50.1L91.928,9.643c5.976-1.163,10.1-.57,13.772,4.781l25.887,34.96,26.077-34.77c3.341-4.743,6.932-6.546,12.93-4.8L157.121,27.68,138.867,51.449c-2.173,2.716-1.874,4.574.125,7.2ZM.043,54.062,3.1,39.046C11.409,9.328,45.472-3.02,68.964,15.342c13.729,10.8,17.14,26.077,16.461,43.19H8.04c-1.163,30.8,21.009,49.395,49.275,39.909,9.915-3.33,15.755-11.094,18.678-20.807,1.483-4.868,3.939-5.628,8.513-4.238-2.336,12.148-7.606,22.3-18.743,28.647-16.641,9.507-40.393,6.432-52.888-6.78C5.433,87.6,2.358,77.884.978,67.5.761,65.78.326,64.145,0,62.5q.043-4.216.043-8.432ZM8.182,52H78.112C77.656,29.723,63.786,13.9,44.831,13.767,24.024,13.6,9.084,29.049,8.182,52Z" transform="translate(860.076 1011.859)"/>
  </g>
</svg>
