<svg xmlns="http://www.w3.org/2000/svg" width="180" height="179" viewBox="0 0 180 179">
  <g id="express" transform="translate(-313 -309)">
    <rect id="Rectangle_3" data-name="Rectangle 3" width="180" height="179" transform="translate(313 309)" fill="#c4c4c4"/>
    <path id="expressjs-ar21" d="M56.475,53.606V18.94h1.88v5.453a7.13,7.13,0,0,0,.614-.769,9.319,9.319,0,0,1,8.5-5.274c4.287-.128,7.771,1.459,9.819,5.274A16.953,16.953,0,0,1,77.7,39.165c-1.907,4.275-6.619,6.4-11.663,5.62a9.432,9.432,0,0,1-7.527-4.967V53.6Zm1.88-22.4.421,4.071c.743,4.633,3.482,7.371,7.783,7.886a8.845,8.845,0,0,0,9.716-5.62,15.079,15.079,0,0,0-.331-12.392A8.665,8.665,0,0,0,66.817,20.1a8.439,8.439,0,0,0-7.54,6.234,43.054,43.054,0,0,0-.922,4.865Zm59.417,4.711a10.139,10.139,0,0,1-9.909,8.961c-7.885.4-11.586-4.839-12.174-10.882a17.435,17.435,0,0,1,1.536-9.6,10.711,10.711,0,0,1,11.15-5.978,10.244,10.244,0,0,1,9.089,7.8,52.6,52.6,0,0,1,.883,5.761H97.637c-.384,5.479,2.56,9.883,6.733,10.945,5.2,1.279,9.64-.973,11.252-5.915.358-1.268,1.011-1.447,2.163-1.088Zm-20.15-5.7h18.524c-.116-5.837-3.75-10.079-8.68-10.127C101.9,20,97.866,24.072,97.622,30.217ZM121.6,36.042h1.816a7.281,7.281,0,0,0,4.275,6.273,11.177,11.177,0,0,0,9.7-.256,4.362,4.362,0,0,0,2.56-4.289,3.956,3.956,0,0,0-2.663-3.956c-2-.743-4.122-1.152-6.157-1.805a45.132,45.132,0,0,1-6.2-2.265c-3.279-1.6-3.482-7.834.23-9.808a13.072,13.072,0,0,1,12.5-.193,6.581,6.581,0,0,1,3.329,6.709h-1.557c0-.075-.141-.141-.141-.218-.193-4.964-4.365-6.517-8.845-6.08a11.311,11.311,0,0,0-3.84,1.164,3.836,3.836,0,0,0-2.226,3.84,3.836,3.836,0,0,0,2.56,3.61c1.956.718,4.031,1.178,6.055,1.74l4.889,1.279A5.776,5.776,0,0,1,141.855,37a6.157,6.157,0,0,1-3.315,6.4c-4.275,2.419-11.317,1.78-14.453-1.279a8.533,8.533,0,0,1-2.482-6.08Zm43.294-9.588h-1.7a3.869,3.869,0,0,0-.116-.627,5.566,5.566,0,0,0-4.532-5.351,11.177,11.177,0,0,0-7.181.346,4.362,4.362,0,0,0-3.162,4.161,4.016,4.016,0,0,0,3.072,4.045l7.783,2a21.647,21.647,0,0,1,2.482.755,6.4,6.4,0,0,1,.331,11.919,14.246,14.246,0,0,1-11.521.116,7.988,7.988,0,0,1-4.814-7.758H147.2A9.332,9.332,0,0,0,161.4,42a4.573,4.573,0,0,0,2.458-4.275,3.956,3.956,0,0,0-2.7-3.931c-2-.743-4.122-1.139-6.157-1.805a45.355,45.355,0,0,1-6.234-2.24c-3.2-1.575-3.457-7.758.193-9.73a12.892,12.892,0,0,1,12.7-.141,6.694,6.694,0,0,1,3.213,6.568ZM53.38,44.25a2.933,2.933,0,0,1-3.636-1.382l-6.619-9.154-.96-1.279-7.68,10.446a2.813,2.813,0,0,1-3.457,1.357l9.9-13.275-9.206-12a3.061,3.061,0,0,1,3.648,1.279l6.86,9.266,6.9-9.23A2.753,2.753,0,0,1,52.556,19l-3.573,4.74-4.839,6.3a1.279,1.279,0,0,0,0,1.907l9.217,12.3ZM95.4,18.839v1.805a9.281,9.281,0,0,0-9.883,9.588V44.314H83.681V18.952h1.805v5.2c2.214-3.791,5.632-5.2,9.921-5.3ZM7.334,30.8l.806-3.982c2.214-7.873,11.24-11.15,17.45-6.273,3.636,2.855,4.543,6.9,4.365,11.458H9.472c-.331,8.141,5.543,13.057,13.057,10.548a7.824,7.824,0,0,0,4.954-5.518c.4-1.279,1.053-1.5,2.253-1.128A10.4,10.4,0,0,1,24.769,43.5,12.034,12.034,0,0,1,10.75,41.7,12.616,12.616,0,0,1,7.6,34.3a5.076,5.076,0,0,0-.256-1.279q-.015-1.139-.015-2.226ZM9.5,30.246H28.021c-.116-5.9-3.84-10.088-8.808-10.127-5.53-.075-9.486,4.019-9.73,10.1Z" transform="translate(316.446 362.573)" stroke="#000" stroke-width="1"/>
  </g>
</svg>
