<svg xmlns="http://www.w3.org/2000/svg" width="180" height="180" viewBox="0 0 180 180">
  <g id="git" transform="translate(-1307 -756)">
    <rect id="Rectangle_1" data-name="Rectangle 1" width="180" height="180" transform="translate(1307 756)" fill="#c4c4c4"/>
    <g id="git-2" data-name="git" transform="translate(1319.71 768.71)">
      <path id="Path_274" data-name="Path 274" d="M151.94,70.525,84.325,2.923a9.972,9.972,0,0,0-14.1,0l-14.04,14.04L73.991,34.771a11.839,11.839,0,0,1,15,15.1l17.165,17.165a11.838,11.838,0,1,1-7.108,6.68L83.04,57.708V99.84a11.869,11.869,0,1,1-9.755-.34V56.977a11.863,11.863,0,0,1-6.44-15.552L49.277,23.857,2.923,70.223a9.972,9.972,0,0,0,0,14.1L70.538,151.94a9.972,9.972,0,0,0,14.1,0l67.3-67.287a10,10,0,0,0,0-14.128ZM151.94,70.525Z" transform="translate(-0.003 -0.003)"/>
    </g>
  </g>
</svg>
