<svg xmlns="http://www.w3.org/2000/svg" width="180" height="180" viewBox="0 0 180 180">
  <g id="html5" transform="translate(-869 -848)">
    <path id="Path_282" data-name="Path 282" d="M0,0H180V180H0Z" transform="translate(869 848)" fill="#c4c4c4"/>
    <g id="html-5" transform="translate(889.211 868.211)">
      <path id="Path_266" data-name="Path 266" d="M139.578,69.789a69.673,69.673,0,1,1-20.407-49.382,69.789,69.789,0,0,1,20.407,49.382Z"/>
      <path id="Path_267" data-name="Path 267" d="M173.282,119.474l-3.172,35.385-4.88,54.443a72.751,72.751,0,0,1-86.053.238l-8.072-90.066Z" transform="translate(-52.26 -83.931)" fill="#fff"/>
      <path id="Path_268" data-name="Path 268" d="M256.546,151.249v93.537l32.312-9.122,7.211-84.416Z" transform="translate(-185.81 -107.285)" fill="#fff"/>
      <path id="Path_269" data-name="Path 269" d="M140.9,195.528l3.168,37.52h42.117l-1.376,15.5-13.256,3.59-13.8-3.867-.347-9.663H144.545l1.61,19.051,25.4,7.179,25.4-7.179,3.148-37.277H155.753l-1.1-12.149h0l46.5-.243,1.051-12.459Z" transform="translate(-101.611 -139.828)"/>
      <path id="Path_270" data-name="Path 270" d="M118.191,16.8v5.6h-6.159V16.8H106.3V32.851h5.73V27.625h6.159v5.226h5.73V16.8Z" transform="translate(-71.772 -7.84)" fill="#fff"/>
      <path id="Path_271" data-name="Path 271" d="M200.664,16.8H183.045v5.607h5.73V32.994h6.159V22.4h5.73Z" transform="translate(-129.39 -7.84)" fill="#fff"/>
      <path id="Path_272" data-name="Path 272" d="M356.2,28.288V17.337h-6.159V33.388h15.043v-5.1Z" transform="translate(-254.598 -8.237)" fill="#fff"/>
      <path id="Path_273" data-name="Path 273" d="M274,17.337l-4.3,5.724-4.3-5.724h-6.159V33.388h6.159V25.426l4.3,5.725,4.3-5.725v7.965h6.159V17.339Z" transform="translate(-186.748 -8.237)" fill="#fff"/>
    </g>
  </g>
</svg>
