<svg xmlns="http://www.w3.org/2000/svg" width="180" height="180" viewBox="0 0 180 180">
  <g id="Javascript" transform="translate(-412 -564)">
    <path id="Rectangle_6" data-name="Rectangle 6" d="M0,0H180V180H0Z" transform="translate(412 564)" fill="#c4c4c4"/>
    <g id="javascript-2" data-name="javascript" transform="translate(430.86 583.466)">
      <path id="Path_307" data-name="Path 307" d="M141.382,70.656a70.237,70.237,0,1,1-4.959-26.041A70.237,70.237,0,0,1,141.382,70.656Z"/>
      <g id="Group_15" data-name="Group 15" transform="translate(19.005 11.56)">
        <path id="Path_308" data-name="Path 308" d="M320.9,193.512c-1.812-5.255-9.242-5.255-10.691-.906s3.443,6.886,11.053,9.423,12.323,9.242,11.417,15.222-3.443,13.772-18.483,13.772c-9.4,0-14.624-5.875-17.22-10.282l8.522-5.121s2.9,6.161,8.336,6.161,7.608-1.812,7.608-5.98c0-5.073-17.577-6.886-20.3-15.584s.906-21.021,13.591-20.115c7.928.566,12.388,4.459,14.617,7.3Z" transform="translate(-229.279 -139.022)" fill="#f2f2f2"/>
        <path id="Path_309" data-name="Path 309" d="M174.609,183.8v34.792c0,4.167-3.624,6.342-7.248,5.618s-5.255-5.073-5.255-5.073l-8.336,5.618s1.812,8.336,13.229,9.06,17.94-6.161,17.94-11.96V183.8Z" transform="translate(-130.53 -141.739)" fill="#f2f2f2"/>
        <path id="Path_310" data-name="Path 310" d="M73.968,45.213v109.6a71.832,71.832,0,0,0,9.686,8.208h82.733a71.987,71.987,0,0,0,7.863-6.432H80.4V51.643H185.34v91.638a71.4,71.4,0,0,0,6.432-12.466v-85.6Z" transform="translate(-73.968 -45.213)" fill="#f2f2f2"/>
      </g>
      <circle id="Ellipse_3" data-name="Ellipse 3" cx="10.329" cy="10.329" r="10.329" transform="translate(12.207 83.591)" fill="#21211d"/>
    </g>
  </g>
</svg>
