<svg xmlns="http://www.w3.org/2000/svg" width="180" height="180" viewBox="0 0 180 180">
  <g id="nextjs" transform="translate(-546 -303)">
    <rect id="Rectangle_2" data-name="Rectangle 2" width="180" height="180" transform="translate(546 303)" fill="#c4c4c4"/>
    <g id="nextjs-2" data-name="nextjs" transform="translate(568.803 317.839)">
      <path id="Path_3" data-name="Path 3" d="M65.884.362c-.3.027-1.259.126-2.121.192A70.128,70.128,0,0,0,13.479,29.562,69.3,69.3,0,0,0,1.127,60.143,53.592,53.592,0,0,0,.5,70.337a53.592,53.592,0,0,0,.629,10.2A70.274,70.274,0,0,0,48.99,137.085a73.955,73.955,0,0,0,14.775,3.065,128.854,128.854,0,0,0,13.406,0,70.628,70.628,0,0,0,25.21-7.375c1.2-.616,1.436-.78,1.272-.917-.109-.082-5.237-6.965-11.394-15.284L81.067,101.453,67.046,80.7c-7.715-11.412-14.062-20.744-14.12-20.744s-.109,9.209-.137,20.47c-.041,19.717-.055,20.511-.3,20.976a2.487,2.487,0,0,1-1.2,1.245c-.438.219-.821.26-2.887.26H46.037l-.629-.4a2.558,2.558,0,0,1-.916-1l-.287-.615.027-27.435.041-27.449.424-.533a3.753,3.753,0,0,1,1.013-.834c.561-.274.78-.3,3.147-.3,2.79,0,3.256.109,3.981.9.2.219,7.8,11.658,16.879,25.437s21.507,32.593,27.6,41.829L108.4,129.3l.561-.369a71.833,71.833,0,0,0,14.376-12.615,69.688,69.688,0,0,0,16.47-35.781,53.593,53.593,0,0,0,.629-10.2,53.591,53.591,0,0,0-.629-10.2A70.274,70.274,0,0,0,91.942,3.591,73.44,73.44,0,0,0,77.373.54C76.061.4,67.019.253,65.884.362ZM94.528,42.7a2.761,2.761,0,0,1,1.381,1.614c.109.355.137,7.964.109,25.108l-.041,24.6-4.336-6.65-4.35-6.65V62.839c0-11.562.055-18.061.137-18.376a2.791,2.791,0,0,1,1.354-1.724c.561-.287.766-.314,2.914-.314,2.024,0,2.38.027,2.831.274Z" transform="translate(0 0)"/>
      <path id="Path_4" data-name="Path 4" d="M760.906,943.3c-.5.311-.652.524-.213.284.311-.184.821-.567.737-.581a2.921,2.921,0,0,0-.524.3Zm-.977.637c-.255.2-.255.212.057.057a.865.865,0,0,0,.311-.213c0-.116-.07-.084-.363.156Zm-.708.425c-.255.2-.255.213.057.057a.867.867,0,0,0,.311-.213c0-.112-.07-.084-.367.156Zm-.708.425c-.254.2-.254.213.057.057a.866.866,0,0,0,.311-.213c0-.115-.07-.084-.365.157Zm-1.076.567c-.538.284-.51.4.028.128a1.477,1.477,0,0,0,.425-.284c0-.1-.013-.085-.452.156Z" transform="translate(-653.176 -814.073)"/>
    </g>
  </g>
</svg>
