<svg xmlns="http://www.w3.org/2000/svg" width="180" height="180" viewBox="0 0 180 180">
  <g id="React" transform="translate(-1345.754 -580.577)">
    <rect id="Rectangle_4" data-name="Rectangle 4" width="180" height="180" transform="translate(1345.754 580.577)" fill="#fff"/>
    <g id="structure" transform="translate(1365.755 591.807)">
      <path id="Path_297" data-name="Path 297" d="M114.857,100.335c-17.477,0-40.671-7.814-60.8-19.007C26.834,66.194,6.46,46.2,2.149,30.394.13,23,1.888,17.8,3.725,14.747c11.187-18.674,52-9.42,84.715,8.774,27.218,15.135,47.593,35.127,51.9,50.934,2.019,7.4.26,12.594-1.576,15.647-4.3,7.18-12.984,10.233-23.91,10.233ZM27.615,17.211c-12.756,0-14.377,4.39-12.886,9.868,2.735,10.035,18.213,27.806,45.73,43.114,34.4,19.128,62.712,20.722,67.082,13.414.82-1.37.9-3.334.215-5.836-2.735-10.035-18.213-27.806-45.73-43.114C59.7,22.241,39.935,17.211,27.615,17.211Z" transform="translate(-1.25 26.348)"/>
      <path id="Path_298" data-name="Path 298" d="M37.348,23.674A13.674,13.674,0,1,1,23.674,10,13.679,13.679,0,0,1,37.348,23.674Z" transform="translate(46.325 55.096)" fill="#141414"/>
      <path id="Path_299" data-name="Path 299" d="M41.186,157.54C18.739,157.54,7,117.912,7,78.77S18.739,0,41.186,0,75.371,39.628,75.371,78.77,63.632,157.54,41.186,157.54Zm0-144.411c-8.164,0-20.511,26.178-20.511,65.642s12.348,65.642,20.511,65.642S61.7,118.234,61.7,78.77,49.349,13.128,41.186,13.128Z" transform="translate(28.814)"/>
      <path id="Path_300" data-name="Path 300" d="M85.172,9.935a136.577,136.577,0,0,0-13.935,5.184A169.27,169.27,0,0,1,87,22.734l1.172-.384A121.13,121.13,0,0,0,85.172,9.935Zm53.59,4.8C132.381,4.111,116.428,2.511,97.8,6.543a114.646,114.646,0,0,1,2.93,12.351,68.818,68.818,0,0,1,14.13-1.664c13.114,0,14.241,4.685,12.893,9.856-1.172,4.288-4.688,10.048-10.483,16.447C105.527,56.2,87.406,68.371,71.238,75.724A144.047,144.047,0,0,0,87,82.124c10.744-6.041,26.052-15.193,39.525-29.695,7.1-7.616,11.981-15.167,13.8-22.015,1.5-5.459,1.257-10.86-1.563-15.679ZM88.168,22.35a121.132,121.132,0,0,0-3-12.415,136.577,136.577,0,0,0-13.935,5.184A169.271,169.271,0,0,1,87,22.734ZM54.308,82.508a122.555,122.555,0,0,0,3,12.479c4.623-1.472,9.311-3.2,13.935-5.184-5.339-2.3-10.679-4.864-15.758-7.68ZM34.513,52.429A164.028,164.028,0,0,1,71.238,29.134a144.049,144.049,0,0,0-15.758-6.4C44.736,28.775,35.119,34.81,25.2,43.533,16.307,51.123,5.153,63.161,2.151,74.444c-3.751,13.779,4.141,25.919,25.46,25.919a79.389,79.389,0,0,0,17.06-2.048,114.642,114.642,0,0,1-2.93-12.351c-12.242,2.56-30.148,3.8-27.023-8.192,2.487-9.107,12.665-19.116,19.795-25.343Z" transform="translate(-1.238 26.342)"/>
      <path id="Path_301" data-name="Path 301" d="M54.7,69.438a170.118,170.118,0,0,0,2.058,17.188c.479.267.957.54,1.436.8H58.2c5.374,2.974,10.933,5.709,16.539,8.136V80.6q-5.528-2.646-11.322-5.914Q58.858,72.1,54.7,69.438ZM36.21,55.682a.094.094,0,0,0-.027.021,131.339,131.339,0,0,0-9.763,9.565,167.217,167.217,0,0,0,15.233,11.89c-.609-5.832-.964-11.815-1.067-17.817-1.525-1.224-2.988-2.448-4.376-3.658ZM60.1,10.27a127.554,127.554,0,0,0-3.111,13.264q3.825,1.292,7.876,2.919,3.569,1.426,7.316,3.152c.848.39,1.7.793,2.564,1.2V15.842c-4.882-2.113-9.8-3.986-14.645-5.572ZM28.949,4.513c-11.466,0-20.587,3.261-25.106,10.933C1.922,18.707.076,24.259,2.2,32.162c1.949,7.275,7.029,15.383,14.467,23.547a116.469,116.469,0,0,1,9.75-9.51c.014-.014.034-.027.048-.041-6.119-6.8-9.825-12.929-11.056-17.53-1.573-5.846.137-10.543,13.531-10.543a72.059,72.059,0,0,1,14.8,1.764c.861-4.615,1.9-9.039,3.111-13.209A85.51,85.51,0,0,0,28.949,4.513Z" transform="translate(-1.244 23.575)"/>
      <path id="Path_302" data-name="Path 302" d="M23.674,10a13.674,13.674,0,0,0,0,27.348Z" transform="translate(46.684 55.096)" fill="#2e2e2e"/>
      <path id="Path_303" data-name="Path 303" d="M21.153,65.53c-4.806,2.98-9.558,6.243-14.119,9.741C7.014,76.44,7,77.6,7,78.77s.014,2.33.034,3.492c.1,5.757.458,11.5,1.067,17.106.513,4.733,1.2,9.36,2.072,13.811.014,0,.027-.007.041-.007a116.888,116.888,0,0,0,3.077,12.669h-.014c5.627,18.59,15,31.7,27.909,31.7V144.411c-5.258,0-12.252-10.857-16.559-29.125-.438-1.818-.848-3.715-1.217-5.665h.014c-.075-.387-.144-.768-.212-1.162a157.1,157.1,0,0,1-2.058-16.5c-.315-4.2-.479-8.606-.479-13.187,0-4.6.171-9.019.479-13.24ZM41.186,0c-12.9,0-22.268,13.1-27.9,31.665a129.121,129.121,0,0,0-3.111,12.682C9.3,48.8,8.1,58.158,8.1,58.158S17.974,52,23.2,49.106c.068-.414.144-.814.226-1.221A120.013,120.013,0,0,1,26.54,35.151c4.28-13.942,10.112-22.023,14.645-22.023Z" transform="translate(29.874)"/>
      <path id="Path_304" data-name="Path 304" d="M58.192,70.808l-1.217.41h-.014c.376,2.031.779,4.007,1.217,5.9.6,2.632,1.251,5.121,1.928,7.432,4.854-1.573,9.777-3.419,14.631-5.538C69.131,76.551,63.525,73.817,58.192,70.808Zm0-63.448c-.479.273-.964.547-1.436.827-5.23,3.015-10.215,6.065-15.1,9.428a150.1,150.1,0,0,0-15.2,11.924c-.014.014-.034.027-.048.041a118.594,118.594,0,0,0-9.75,9.51C10.188,46.195,4.295,54.577,2.2,62.6c-3.938,14.72,4.348,27.69,26.733,27.69a81.878,81.878,0,0,0,17.9-2.188h.014a124.274,124.274,0,0,1-3.077-13.2c-.014,0-.027.007-.041.007a75.8,75.8,0,0,1-15.076,1.8c-8.533,0-15.336-2.441-13.25-10.563,1.573-5.853,6.065-12.047,11.021-17.51a128.736,128.736,0,0,1,9.757-9.565.094.094,0,0,1,.027-.021q2.154-1.846,4.383-3.624C45.146,31.8,49.9,28.4,54.7,25.294A165.215,165.215,0,0,1,74.737,14.2q-1.292-.626-2.564-1.21-3.743-1.723-7.316-3.152Q61.443,8.471,58.192,7.36Z" transform="translate(-1.238 38.899)"/>
    </g>
  </g>
</svg>
