<svg xmlns="http://www.w3.org/2000/svg" width="180" height="180" viewBox="0 0 180 180">
  <g id="React" transform="translate(-1345.754 -580.577)">
    <rect id="Rectangle_4" data-name="Rectangle 4" width="180" height="180" transform="translate(1345.754 580.577)" fill="#c4c4c4"/>
    <g id="structure" transform="translate(1372.019 598.855)">
      <path id="Path_297" data-name="Path 297" d="M104.691,91.761c-15.913,0-37.032-7.115-55.359-17.306C24.545,60.675,5.994,42.47,2.069,28.078.23,21.346,1.831,16.611,3.5,13.831c10.186-17,47.347-8.577,77.134,7.989C105.42,35.6,123.972,53.8,127.894,68.2c1.838,6.738.237,11.467-1.435,14.247-3.915,6.538-11.822,9.317-21.77,9.317ZM25.256,16.075c-11.615,0-13.091,4-11.733,8.985,2.49,9.137,16.583,25.318,41.638,39.256,31.322,17.416,57.1,18.868,61.079,12.214.747-1.247.819-3.036.2-5.314C113.946,62.079,99.853,45.9,74.8,31.96,54.47,20.655,36.473,16.075,25.256,16.075Z" transform="translate(-1.25 23.586)"/>
      <path id="Path_298" data-name="Path 298" d="M34.9,22.45A12.45,12.45,0,1,1,22.45,10,12.45,12.45,0,0,1,34.9,22.45Z" transform="translate(41.285 49.271)" fill="#141414"/>
      <path id="Path_299" data-name="Path 299" d="M38.127,143.443C17.689,143.443,7,107.361,7,71.721S17.689,0,38.127,0,69.253,36.082,69.253,71.721,58.564,143.443,38.127,143.443Zm0-131.489c-7.433,0-18.676,23.836-18.676,59.768s11.243,59.768,18.676,59.768,18.678-23.836,18.678-59.769S45.56,11.953,38.127,11.953Z" transform="translate(25.609)"/>
      <path id="Path_300" data-name="Path 300" d="M77.663,9.45a124.355,124.355,0,0,0-12.688,4.72A154.123,154.123,0,0,1,79.327,21.1l1.067-.35a110.289,110.289,0,0,0-2.732-11.3Zm48.795,4.37c-5.81-9.673-20.335-11.13-37.3-7.459a104.389,104.389,0,0,1,2.668,11.246,62.66,62.66,0,0,1,12.866-1.515c11.941,0,12.967,4.266,11.739,8.974-1.067,3.9-4.269,9.149-9.545,14.975C96.2,51.575,79.7,62.657,64.975,69.352a131.16,131.16,0,0,0,14.352,5.827c9.783-5.5,23.721-13.833,35.988-27.038,6.465-6.935,10.909-13.81,12.565-20.045,1.366-4.971,1.145-9.888-1.423-14.276ZM80.391,20.754a110.3,110.3,0,0,0-2.732-11.3,124.355,124.355,0,0,0-12.688,4.72A154.122,154.122,0,0,1,79.327,21.1ZM49.56,75.529a111.593,111.593,0,0,0,2.732,11.362c4.209-1.34,8.478-2.914,12.688-4.72-4.861-2.094-9.723-4.429-14.348-6.993ZM31.537,48.141A149.35,149.35,0,0,1,64.976,26.931,131.156,131.156,0,0,0,50.628,21.1c-9.783,5.5-18.539,11-27.57,18.938C14.96,46.952,4.8,57.913,2.071,68.186c-3.415,12.546,3.77,23.6,23.182,23.6a72.285,72.285,0,0,0,15.533-1.865,104.383,104.383,0,0,1-2.668-11.246c-11.147,2.331-27.45,3.46-24.6-7.459,2.264-8.292,11.532-17.405,18.024-23.075Z" transform="translate(-1.239 23.581)"/>
      <path id="Path_301" data-name="Path 301" d="M49.917,63.628a154.9,154.9,0,0,0,1.874,15.65c.436.243.871.492,1.307.728H53.1c4.893,2.708,9.955,5.2,15.059,7.408V73.792q-5.033-2.409-10.309-5.385Q53.7,66.052,49.917,63.628ZM33.082,51.1a.085.085,0,0,0-.025.019,119.584,119.584,0,0,0-8.889,8.709,152.253,152.253,0,0,0,13.87,10.826c-.554-5.31-.878-10.758-.972-16.223-1.389-1.114-2.721-2.229-3.984-3.331ZM54.834,9.755A116.136,116.136,0,0,0,52,21.832q3.483,1.176,7.171,2.658,3.25,1.3,6.661,2.87c.772.355,1.548.722,2.335,1.093V14.828C63.724,12.9,59.246,11.2,54.834,9.755ZM26.471,4.513c-10.44,0-18.745,2.969-22.859,9.955-1.749,2.969-3.43,8.024-1.5,15.22,1.775,6.624,6.4,14.006,13.172,21.44a106.045,106.045,0,0,1,8.878-8.659c.013-.013.031-.025.044-.037C18.637,36.24,15.263,30.659,14.142,26.47c-1.432-5.323.125-9.6,12.32-9.6a65.611,65.611,0,0,1,13.476,1.606c.784-4.2,1.73-8.23,2.833-12.027a77.858,77.858,0,0,0-16.3-1.937Z" transform="translate(-1.245 21.062)"/>
      <path id="Path_302" data-name="Path 302" d="M22.45,10a12.45,12.45,0,0,0,0,24.9Z" transform="translate(41.612 49.271)" fill="#2e2e2e"/>
      <path id="Path_303" data-name="Path 303" d="M19.887,59.666c-4.376,2.713-8.7,5.684-12.856,8.869C7.013,69.6,7,70.656,7,71.721s.013,2.122.031,3.18c.091,5.242.417,10.471.972,15.575C8.47,94.786,9.1,99,9.889,103.051c.013,0,.025-.006.037-.006a106.426,106.426,0,0,0,2.8,11.535h-.013c5.123,16.927,13.658,28.863,25.412,28.863V131.489c-4.788,0-11.156-9.885-15.077-26.519-.4-1.655-.772-3.383-1.108-5.158h.013c-.068-.352-.131-.7-.193-1.058A143.047,143.047,0,0,1,19.887,83.73c-.287-3.824-.436-7.836-.436-12.007,0-4.188.156-8.212.436-12.055ZM38.127,0c-11.746,0-20.275,11.928-25.4,28.832A117.571,117.571,0,0,0,9.891,40.379C9.094,44.433,8,52.954,8,52.954s8.99-5.607,13.749-8.242c.062-.377.131-.741.206-1.112a109.276,109.276,0,0,1,2.835-11.595C28.689,19.311,34,11.953,38.126,11.953Z" transform="translate(26.574)"/>
      <path id="Path_304" data-name="Path 304" d="M53.1,65.131l-1.108.373h-.013c.342,1.849.709,3.648,1.108,5.372.546,2.4,1.139,4.663,1.755,6.767,4.42-1.432,8.9-3.113,13.322-5.042C63.057,70.36,57.953,67.87,53.1,65.131Zm0-57.771c-.436.249-.878.5-1.308.753-4.762,2.745-9.3,5.522-13.749,8.584A136.671,136.671,0,0,0,24.2,27.554c-.013.013-.031.025-.044.037a107.985,107.985,0,0,0-8.878,8.659C9.389,42.72,4.023,50.352,2.116,57.657-1.47,71.06,6.074,82.869,26.456,82.869a74.55,74.55,0,0,0,16.3-1.992h.013a113.153,113.153,0,0,1-2.8-12.019c-.013,0-.025.006-.037.006A69.017,69.017,0,0,1,26.2,70.5c-7.769,0-13.964-2.223-12.064-9.618,1.432-5.329,5.522-10.969,10.035-15.943a117.217,117.217,0,0,1,8.884-8.709.086.086,0,0,1,.025-.019q1.961-1.681,3.991-3.3c4.147-3.3,8.476-6.4,12.846-9.225a150.431,150.431,0,0,1,18.244-10.1q-1.176-.57-2.335-1.1-3.408-1.569-6.661-2.87Q56.057,8.372,53.1,7.36Z" transform="translate(-1.24 34.76)"/>
    </g>
  </g>
</svg>
