<svg xmlns="http://www.w3.org/2000/svg" width="200" height="200" viewBox="0 0 200 200">
  <g id="tailwind" transform="translate(-20 -20)">
    <rect id="Rectangle_1" data-name="Rectangle 1" width="200" height="200" transform="translate(20 20)" fill="#fff"/>
    <g id="tailwind-2" data-name="tailwind" transform="translate(-124.79 355.46)">
      <path id="Path_2" data-name="Path 2" d="M82.79.18Q49.745.18,41.47,33.09,53.875,16.635,70.4,20.74c6.28,1.57,10.77,6.11,15.75,11.14,8.1,8.18,17.48,17.66,37.96,17.66q33.045,0,41.31-32.91Q153.03,33.085,136.5,28.97c-6.28-1.56-10.78-6.11-15.75-11.13C112.65,9.65,103.27.18,82.79.18ZM41.47,49.54Q8.425,49.54.16,82.45,12.55,65.995,29.08,70.11c6.29,1.56,10.78,6.11,15.75,11.13,8.1,8.19,17.48,17.66,37.96,17.66q33.06,0,41.32-32.91Q111.7,82.445,95.19,78.34C88.9,76.77,84.41,72.23,79.43,67.2c-8.1-8.18-17.48-17.66-37.96-17.66Z" transform="translate(162 -285)"/>
    </g>
  </g>
</svg>
