<svg xmlns="http://www.w3.org/2000/svg" width="180" height="180" viewBox="0 0 180 180">
  <g id="tailwind" transform="translate(-20 -20)">
    <rect id="Rectangle_1" data-name="Rectangle 1" width="180" height="180" transform="translate(20 20)" fill="#c4c4c4"/>
    <g id="tailwind-2" data-name="tailwind" transform="translate(37.37 60.64)">
      <path id="Path_2" data-name="Path 2" d="M72.79.18Q43.744.18,36.471,33.09,47.374,16.635,61.9,20.74c5.52,1.57,9.467,6.11,13.844,11.14,7.12,8.18,15.365,17.66,33.366,17.66q29.046,0,36.311-32.91Q134.529,33.085,120,28.97c-5.52-1.56-9.475-6.11-13.844-11.13C99.036,9.65,90.791.18,72.79.18ZM36.471,49.54Q7.425,49.54.16,82.45,11.051,66,25.58,70.11c5.529,1.56,9.475,6.11,13.844,11.13C46.544,89.43,54.789,98.9,72.79,98.9q29.059,0,36.319-32.91Q98.2,82.445,83.689,78.34c-5.529-1.57-9.475-6.11-13.853-11.14-7.12-8.18-15.365-17.66-33.366-17.66Z" transform="translate(-0.16 -0.18)"/>
    </g>
  </g>
</svg>
