<svg xmlns="http://www.w3.org/2000/svg" width="179.824" height="180" viewBox="0 0 179.824 180">
  <g id="CSS" transform="translate(-758 -449.5)">
    <rect id="Rectangle_3" data-name="Rectangle 3" width="179.824" height="179.824" transform="translate(758 449.5)" fill="#fff"/>
    <g id="css-2" data-name="css" transform="translate(758 449.676)">
      <path id="Path_290" data-name="Path 290" d="M179.824,89.912A89.912,89.912,0,1,1,89.912,0,89.763,89.763,0,0,1,179.824,89.912Z" transform="translate(0)"/>
      <path id="Path_291" data-name="Path 291" d="M200.434,119.474,190.187,239.048a89.334,89.334,0,0,1-109.931,0L70.008,119.474Z" transform="translate(-45.309 -78.136)" fill="#fff"/>
      <path id="Path_292" data-name="Path 292" d="M256,151.338V276.217l43.138-12.179,9.623-112.7Z" transform="translate(-166.253 -98.758)" fill="#fff"/>
      <path id="Path_293" data-name="Path 293" d="M219.05,228.924H187.937l32.511-16.546,1.4-16.633h-81.84l1.432,16.958H174.3l-31.521,15.761,1.467,17.372h56.228l-1.843,20.69-17.7,4.793L162.5,266.157l-.461-12.9h-17.17l2.148,25.437,33.916,9.585,33.915-9.585,4.2-49.77Z" transform="translate(-91.022 -127.499)"/>
      <g id="Group_11" data-name="Group 11" transform="translate(51.787 9.764)">
        <path id="Path_294" data-name="Path 294" d="M154.081,33.862v-11.8h16.958v-6.39h-23.1V40.252h23.1v-6.39Z" transform="translate(-147.937 -15.676)" fill="#fff"/>
        <path id="Path_295" data-name="Path 295" d="M230.1,25.291V22.342h16.866V15.676h-23.1V30.913h16.558v2.949H223.866v6.39h23.1V25.291Z" transform="translate(-197.078 -15.676)" fill="#fff"/>
        <path id="Path_296" data-name="Path 296" d="M304.812,25.291V22.342h16.866V15.676h-23.1V30.913h16.558v2.949H298.576v6.39h23.1V25.291Z" transform="translate(-245.43 -15.676)" fill="#fff"/>
      </g>
    </g>
  </g>
</svg>
