<svg xmlns="http://www.w3.org/2000/svg" width="180" height="180" viewBox="0 0 180 180">
  <g id="Github" transform="translate(-1898 -280)">
    <path id="Path_281" data-name="Path 281" d="M0,0H180V180H0Z" transform="translate(1898 280)" fill="#fff"/>
    <g id="github-2" data-name="github" transform="translate(1898.714 280)">
      <path id="SVGCleanerId_0" d="M89.283,5.163C39.98,5.163,0,46.474,0,97.447,0,138.212,25.579,172.8,61.072,185c4.461.851,6.089-2,6.089-4.447,0-2.188-.078-7.991-.121-15.694-24.842,5.583-30.081-12.37-30.081-12.37C32.9,141.83,27.051,139,27.051,139c-8.111-5.728.611-5.619.611-5.619,8.957.649,13.672,9.515,13.672,9.515,7.972,14.1,20.9,10.025,25.991,7.661.8-5.96,3.116-10.03,5.665-12.334-19.821-2.333-40.663-10.244-40.663-45.6a36.374,36.374,0,0,1,9.188-24.769c-.925-2.333-3.986-11.712.87-24.413,0,0,7.5-2.479,24.554,9.458a81.9,81.9,0,0,1,44.712,0c17.039-11.937,24.528-9.458,24.528-9.458,4.868,12.7,1.806,22.08.884,24.413a36.3,36.3,0,0,1,9.182,24.769c0,35.446-20.876,43.244-40.766,45.533,3.206,2.849,6.06,8.477,6.06,17.09,0,12.34-.107,22.285-.107,25.312,0,2.473,1.61,5.346,6.138,4.436,35.446-12.225,61-46.79,61-87.543C178.572,46.474,138.592,5.163,89.283,5.163Z" transform="translate(0 -5.163)"/>
      <g id="Group_6" data-name="Group 6" transform="translate(0 0)">
        <path id="SVGCleanerId_0_1_" d="M89.283,5.163C39.98,5.163,0,46.474,0,97.447,0,138.212,25.579,172.8,61.072,185c4.461.851,6.089-2,6.089-4.447,0-2.188-.078-7.991-.121-15.694-24.842,5.583-30.081-12.37-30.081-12.37C32.9,141.83,27.051,139,27.051,139c-8.111-5.728.611-5.619.611-5.619,8.957.649,13.672,9.515,13.672,9.515,7.972,14.1,20.9,10.025,25.991,7.661.8-5.96,3.116-10.03,5.665-12.334-19.821-2.333-40.663-10.244-40.663-45.6a36.374,36.374,0,0,1,9.188-24.769c-.925-2.333-3.986-11.712.87-24.413,0,0,7.5-2.479,24.554,9.458a81.9,81.9,0,0,1,44.712,0c17.039-11.937,24.528-9.458,24.528-9.458,4.868,12.7,1.806,22.08.884,24.413a36.3,36.3,0,0,1,9.182,24.769c0,35.446-20.876,43.244-40.766,45.533,3.206,2.849,6.06,8.477,6.06,17.09,0,12.34-.107,22.285-.107,25.312,0,2.473,1.61,5.346,6.138,4.436,35.446-12.225,61-46.79,61-87.543C178.572,46.474,138.592,5.163,89.283,5.163Z" transform="translate(0 -5.163)"/>
      </g>
      <g id="Group_7" data-name="Group 7" transform="translate(44.209 43.711)">
        <path id="Path_275" data-name="Path 275" d="M323.506,109.131c4.687,12.105,1.7,21.04.786,23.271a34.4,34.4,0,0,1,9.106,23.863c0,34.148-20.7,41.661-40.43,43.866,3.179,2.745,6.01,8.167,6.01,16.464,0,11.888-.106,21.469-.106,24.385,0,2.382,1.6,5.15,6.087,4.273a89.121,89.121,0,0,0,55.3-114.4C348.051,118,334.463,109.437,323.506,109.131Z" transform="translate(-231.098 -109.131)"/>
        <path id="Path_276" data-name="Path 276" d="M145.856,347.176a15.26,15.26,0,0,1,3.485-4.693c-10.774-1.234-21.84-4.11-29.652-12.048C125.7,340.438,135.484,344.988,145.856,347.176Z" transform="translate(-119.688 -251.418)"/>
      </g>
      <path id="Path_278" data-name="Path 278" d="M303.588,232.581c0-8.3-2.831-13.725-6.01-16.47,19.726-2.2,40.433-9.718,40.433-43.863a34.368,34.368,0,0,0-9.112-23.86c.92-2.248,3.962-11.286-.877-23.52a8.9,8.9,0,0,0-2.819-.174c2.074,9.226-.148,15.825-.911,17.7a34.4,34.4,0,0,1,9.106,23.863c0,34.148-20.7,41.661-40.43,43.866,3.179,2.745,6.01,8.167,6.01,16.464,0,11.888-.106,21.469-.106,24.385a4.211,4.211,0,0,0,4.613,4.43C303.508,251.382,303.588,242.85,303.588,232.581Z" transform="translate(-187.196 -75.41)"/>
      <path id="Path_277" data-name="Path 277" d="M4.653,100.062c0-49.108,40.013-88.906,89.358-88.906A89.326,89.326,0,0,1,162.3,42.751,89.351,89.351,0,0,0,89.358,5.163C40.013,5.163,0,44.961,0,94.069A88.186,88.186,0,0,0,21.17,151.48,88.087,88.087,0,0,1,4.653,100.062Z" transform="translate(0 -5.163)"/>
      <path id="Path_279" data-name="Path 279" d="M117.464,423.995c1.86,3.828,8.109,13,24.6,11.066-.023-2.017-.04-4.276-.051-6.758C129.29,431.079,121.78,427.805,117.464,423.995Z" transform="translate(-75.118 -267.861)"/>
      <path id="Path_280" data-name="Path 280" d="M120.643,384.608a21.866,21.866,0,0,0-3.179-3.765A21.352,21.352,0,0,0,120.643,384.608Z" transform="translate(-75.168 -241.495)"/>
    </g>
  </g>
</svg>
