<svg xmlns="http://www.w3.org/2000/svg" width="180" height="180" viewBox="0 0 180 180">
  <g id="NextJS" transform="translate(-2101 -836)">
    <rect id="Rectangle_1" data-name="Rectangle 1" width="180" height="180" transform="translate(2101 836)" fill="#fff"/>
    <g id="Nextjs-2" data-name="Nextjs" transform="translate(2278.728 1120.378)">
      <path id="Path_1" data-name="Path 1" d="M63.39.361c-.289.026-1.21.118-2.039.184A67.46,67.46,0,0,0,12.986,28.434a66.609,66.609,0,0,0-11.881,29.4,51.5,51.5,0,0,0-.605,9.8,51.5,51.5,0,0,0,.605,9.8,67.57,67.57,0,0,0,46.036,54.37,71.159,71.159,0,0,0,14.209,2.947,123.985,123.985,0,0,0,12.894,0,67.955,67.955,0,0,0,24.248-7.091c1.158-.592,1.381-.75,1.224-.881-.105-.079-5.039-6.7-10.96-14.694L77.994,97.55,64.508,77.594C57.088,66.622,50.983,57.651,50.93,57.651s-.105,8.853-.132,19.68c-.039,18.956-.053,19.719-.289,20.167a2.391,2.391,0,0,1-1.158,1.2c-.421.21-.789.25-2.776.25H44.3l-.605-.382a2.46,2.46,0,0,1-.882-.96l-.276-.592.026-26.376L42.6,44.246l.408-.513a3.609,3.609,0,0,1,.974-.8c.539-.263.75-.289,3.026-.289,2.684,0,3.131.105,3.829.868.2.21,7.5,11.208,16.236,24.455S87.757,99.3,93.625,108.179l10.657,16.141.539-.355a69.083,69.083,0,0,0,13.828-12.129,66.985,66.985,0,0,0,15.841-34.4,51.5,51.5,0,0,0,.605-9.8,51.5,51.5,0,0,0-.605-9.8A67.57,67.57,0,0,0,88.454,3.465,70.664,70.664,0,0,0,74.442.532C73.179.4,64.482.256,63.39.361Zm27.551,40.7a2.654,2.654,0,0,1,1.329,1.552c.105.342.132,7.656.105,24.139l-.039,23.653-4.171-6.393L83.981,77.62V60.426c0-11.116.053-17.365.132-17.667a2.684,2.684,0,0,1,1.3-1.658c.539-.276.737-.3,2.8-.3,1.947,0,2.289.026,2.723.263Z" transform="translate(-155.525 -262)"/>
    </g>
  </g>
</svg>
