<svg xmlns="http://www.w3.org/2000/svg" width="180" height="180" viewBox="0 0 180 180">
  <g id="Nodejs" transform="translate(-898.398 -452)">
    <rect id="Rectangle_2" data-name="Rectangle 2" width="180" height="180" transform="translate(898.398 452)" fill="#fff"/>
    <g id="node-js" transform="translate(908.814 519.786)">
      <path id="Path_284" data-name="Path 284" d="M117.444,87.783a2.191,2.191,0,0,1-1.1-.3l-3.511-2.077c-.525-.293-.269-.4-.1-.457a7.126,7.126,0,0,0,1.587-.722.268.268,0,0,1,.261.02l2.7,1.6a.346.346,0,0,0,.326,0l10.515-6.069a.329.329,0,0,0,.162-.285V67.363a.339.339,0,0,0-.163-.29l-10.511-6.064a.336.336,0,0,0-.325,0l-10.51,6.065a.343.343,0,0,0-.166.289V79.5a.322.322,0,0,0,.166.281l2.88,1.665c1.563.78,2.521-.139,2.521-1.064V68.4a.3.3,0,0,1,.3-.3h1.334a.3.3,0,0,1,.3.3V80.38c0,2.085-1.135,3.281-3.113,3.281A4.5,4.5,0,0,1,108.582,83l-2.757-1.587a2.221,2.221,0,0,1-1.1-1.918V67.364a2.212,2.212,0,0,1,1.1-1.916l10.515-6.077a2.309,2.309,0,0,1,2.208,0l10.515,6.077a2.219,2.219,0,0,1,1.1,1.916V79.5a2.227,2.227,0,0,1-1.1,1.918l-10.515,6.07a2.187,2.187,0,0,1-1.1.3m3.25-8.361c-4.6,0-5.567-2.113-5.567-3.884a.3.3,0,0,1,.3-.3h1.359a.3.3,0,0,1,.3.257c.2,1.384.817,2.083,3.6,2.083,2.214,0,3.157-.5,3.157-1.677,0-.678-.268-1.18-3.709-1.518-2.877-.285-4.657-.919-4.657-3.223,0-2.121,1.788-3.387,4.785-3.387,3.369,0,5.036,1.17,5.246,3.679a.3.3,0,0,1-.3.33h-1.366a.3.3,0,0,1-.3-.237c-.329-1.457-1.123-1.922-3.284-1.922-2.418,0-2.7.844-2.7,1.473,0,.764.331.987,3.6,1.419,3.231.428,4.767,1.032,4.767,3.3,0,2.3-1.909,3.609-5.24,3.609" transform="translate(28.625 -43.171)"/>
      <path id="Path_285" data-name="Path 285" d="M103.928,71.388a1.35,1.35,0,0,0,.67-1.166V67.1a1.347,1.347,0,0,0-.67-1.164L92.847,59.506a1.347,1.347,0,0,0-1.35,0L80.348,65.94a1.348,1.348,0,0,0-.673,1.166V79.978a1.348,1.348,0,0,0,.681,1.171l11.079,6.313a1.344,1.344,0,0,0,1.321.008l6.7-3.725a.672.672,0,0,0,.008-1.172L88.246,76.133a.672.672,0,0,1-.339-.583V71.515a.669.669,0,0,1,.336-.582l3.493-2.014a.669.669,0,0,1,.672,0L95.9,70.933a.671.671,0,0,1,.338.582v3.174a.673.673,0,0,0,1.012.583l6.676-3.884" transform="translate(20.489 -43.096)"/>
      <path id="Path_286" data-name="Path 286" d="M89.54,67.982a.264.264,0,0,1,.258,0l2.14,1.236a.26.26,0,0,1,.129.224v2.471a.259.259,0,0,1-.129.224L89.8,73.371a.257.257,0,0,1-.258,0L87.4,72.137a.257.257,0,0,1-.13-.224V69.442a.259.259,0,0,1,.13-.224l2.138-1.236" transform="translate(22.957 -40.295)"/>
      <path id="Path_287" data-name="Path 287" d="M71.162,79.9a.338.338,0,0,1-.168.291L67.165,82.4a.333.333,0,0,1-.336,0L63,80.194a.338.338,0,0,1-.168-.291V75.48A.343.343,0,0,1,63,75.187l3.829-2.21a.329.329,0,0,1,.338,0L71,75.187a.341.341,0,0,1,.167.293V79.9ZM72.2,47.159a.674.674,0,0,0-1,.588v17.11a.47.47,0,0,1-.706.408L67.7,63.655a1.347,1.347,0,0,0-1.345,0L55.2,70.091a1.349,1.349,0,0,0-.674,1.167V84.133A1.352,1.352,0,0,0,55.2,85.3L66.35,91.74a1.345,1.345,0,0,0,1.347,0L78.852,85.3a1.352,1.352,0,0,0,.673-1.167v-32.1a1.351,1.351,0,0,0-.69-1.176l-6.639-3.7" transform="translate(12.321 -47.074)"/>
      <path id="Path_288" data-name="Path 288" d="M41.136,59.451a1.343,1.343,0,0,1,1.346,0l11.152,6.434a1.35,1.35,0,0,1,.673,1.167v12.88a1.35,1.35,0,0,1-.673,1.167l-11.151,6.44a1.352,1.352,0,0,1-1.347,0L29.988,81.1a1.35,1.35,0,0,1-.673-1.167V67.052a1.35,1.35,0,0,1,.673-1.166l11.148-6.434" transform="translate(4.133 -43.113)"/>
      <path id="Path_289" data-name="Path 289" d="M29.056,66.967a1.343,1.343,0,0,0-.673-1.17L17.235,59.381a1.311,1.311,0,0,0-.615-.176h-.115a1.316,1.316,0,0,0-.615.176L4.741,65.8a1.352,1.352,0,0,0-.674,1.17l.024,17.275a.661.661,0,0,0,.336.582.646.646,0,0,0,.669,0L11.72,81.03a1.358,1.358,0,0,0,.674-1.168V71.79a1.345,1.345,0,0,1,.672-1.167L15.888,69a1.336,1.336,0,0,1,1.345,0l2.819,1.624a1.347,1.347,0,0,1,.674,1.167v8.071A1.36,1.36,0,0,0,21.4,81.03l6.624,3.794a.653.653,0,0,0,.673,0,.673.673,0,0,0,.334-.582l.025-17.275" transform="translate(-4.067 -43.134)"/>
    </g>
  </g>
</svg>
